<svg id="life_style_working" data-name="life style working" xmlns="http://www.w3.org/2000/svg" xmlns:xlink="http://www.w3.org/1999/xlink" viewBox="0 0 2600 1700"><defs><style>.cls-1{fill:#0a6df8;}.cls-2{fill:#01843a;}.cls-3{fill:none;}.cls-4{fill:#f5ebdc;}.cls-5{fill:#e8d4c4;}.cls-6{fill:#eaa87a;}.cls-7{fill:#f8ce46;}.cls-8{fill:#fbf5ec;}.cls-9{fill:#2c292e;}.cls-10{clip-path:url(#clip-path);}.cls-11{fill:#fdcc00;}.cls-12{clip-path:url(#clip-path-2);}.cls-13{fill:#00a350;}.cls-14{fill:#f9f5f3;}.cls-15{clip-path:url(#clip-path-3);}.cls-16{clip-path:url(#clip-path-4);}.cls-17{clip-path:url(#clip-path-5);}.cls-18{fill:#eeded2;}.cls-19{clip-path:url(#clip-path-6);}.cls-20{clip-path:url(#clip-path-7);}.cls-21{fill:#f5b840;}.cls-22{fill:#fff;}.cls-23{fill:#2e73f0;}.cls-24{fill:#1d56f5;}.cls-25{fill:#403d44;}.cls-26{clip-path:url(#clip-path-8);}.cls-27{fill:#de9f73;}.cls-28{fill:#18376e;}.cls-29{clip-path:url(#clip-path-9);}.cls-30{clip-path:url(#clip-path-10);}.cls-31{fill:#3b84c9;}</style><clipPath id="clip-path"><path class="cls-1" d="M1796,1002.09,964.48,1123a27.54,27.54,0,0,1-31.21-23.29L856.38,570.76a27.54,27.54,0,0,1,23.29-31.21l831.52-120.89A27.54,27.54,0,0,1,1742.4,442l76.9,528.93A27.53,27.53,0,0,1,1796,1002.09Z"/></clipPath><clipPath id="clip-path-2"><path class="cls-2" d="M908.88,931.89s161.59-278.06,478.49-237.47c273.52,35,399.8,33.93,399.8,33.93l39.1,285.42L937.45,1131.66,910.06,931.73"/></clipPath><clipPath id="clip-path-3"><rect class="cls-3" y="220.35" width="2600" height="1194.87"/></clipPath><clipPath id="clip-path-4"><path class="cls-4" d="M2795.56,856.12,1951,977a27.88,27.88,0,0,1-31.67-23.29l-78.09-528.9a27.62,27.62,0,0,1,23.64-31.24l844.6-120.89a27.9,27.9,0,0,1,31.67,23.3l78.09,528.9A27.61,27.61,0,0,1,2795.56,856.12Z"/></clipPath><clipPath id="clip-path-5"><path class="cls-5" d="M1894.51,785.92s164.12-278,486-237.46c277.8,35,406.06,33.92,406.06,33.92l39.72,285.42L1923.54,985.69l-27.83-199.93"/></clipPath><clipPath id="clip-path-6"><path class="cls-4" d="M807.94,1143.91-36.66,1264.8a27.88,27.88,0,0,1-31.67-23.3l-78.1-528.89a27.62,27.62,0,0,1,23.64-31.24l844.6-120.89a27.88,27.88,0,0,1,31.67,23.3l78.1,528.89A27.62,27.62,0,0,1,807.94,1143.91Z"/></clipPath><clipPath id="clip-path-7"><path class="cls-5" d="M-93.11,1073.71S71,795.65,392.89,836.24c277.8,35,406.06,33.93,406.06,33.93l39.71,285.41-902.75,117.9-27.82-199.93"/></clipPath><clipPath id="clip-path-8"><path class="cls-6" d="M651.91,716.11a99.32,99.32,0,0,1,.12-12.84L696.72,709s8.74,54.82-20.26,49.38c-.57-.11-1.14-.24-1.69-.38l-4.83,43.41c-18.05-1.93-32.66-27.64-32.66-27.64C648.38,757.35,651.24,731.53,651.91,716.11Z"/></clipPath><clipPath id="clip-path-9"><path class="cls-6" d="M1857.39,565.92a81.83,81.83,0,0,1-2.46-14l-66.35,29.16s27.89,68,52.48,40.93c.44-.48,21,41.3,21,41.3,16.1-7.31,29.72-34.8,31.34-41A156.53,156.53,0,0,1,1857.39,565.92Z"/></clipPath><clipPath id="clip-path-10"><path class="cls-7" d="M1965.11,628.64a59.78,59.78,0,0,0-4.06-5.68c-17-20.55-46.19-27.07-70.22-14.83-25.69,13.09-53.56,36.87-61.35,79.57-7.21,39.48,20.81,98,52.73,149.24a339.85,339.85,0,0,1,35.06,74.78c8.22,25.37,14.29,53.69,13.22,80.34,0,0,152.51-63.22,193.68-201.94l-14.91-9.43A414.72,414.72,0,0,1,1983.7,657.06Z"/></clipPath></defs><g id="BG"><rect class="cls-8" width="2600" height="1700"/><path class="cls-4" d="M.39,1091.77c34.2-.07,61.59-5,94.41-14.74,31.79-9.44,62.27-23.28,94.45-31.3,44.15-11,90.17-10.7,135.29-16.35,42.66-5.34,84.47-16,126.16-26.61l98.06-25C601.11,964.44,653.7,951,703.53,929.94c64.7-27.36,123.53-67.12,180.64-108.4,80.52-58.21,181.85-59.34,279.76-73.08,206.73-29,416.63,20.67,625.08,10.12,172-8.71,343.51,65.64,515.62,61.17,31.78-.83,63.48-3.81,95.26-4.88a791.81,791.81,0,0,1,197.91,18.34V1700H0Z"/><path class="cls-5" d="M1579.73,1167.42c-52.1,54.9-122.46,87.91-195.49,107.18-37.18,9.81-75.23,16.31-113.46,20.67-39,4.45-80.19,5.7-115.88,23.62-18.05,9.06-33.12,22.49-48.08,35.69-15.72,13.87-31.94,26.64-50.44,36.83-35.92,19.78-76,30.81-115.89,39.95-90.62,20.77-182.19,38.13-273.8,54.14Q526.4,1510,385.05,1528.3q-17.4,2.25-34.81,4.4c-2.67.33-2.71,4.5,0,4.16q141.36-17.49,281.82-41.19,140.73-23.79,280.25-53.83c39.8-8.57,79.86-17.43,117.5-33.1a262.62,262.62,0,0,0,53-29c16.59-12,31-26.44,46.87-39.2a152.86,152.86,0,0,1,57-29c20.58-5.49,41.87-7.69,63-9.84,38-3.84,75.72-9,112.93-17.47,72.7-16.48,144.44-45,200.33-94.65,6.87-6.1,13.44-12.51,19.76-19.16,1.86-2-1.14-4.92-3-2.95Z"/><path class="cls-5" d="M1608.32,1140.56a173,173,0,0,1,30.73-28.72,241.6,241.6,0,0,1,36.61-21.9,367.72,367.72,0,0,1,39.62-16.46c15.1-5.34,30.46-9.9,45.87-14.32,16.59-4.75,33.25-9.33,49.74-14.44l6.13-1.93c2.59-.83,1.48-4.85-1.13-4-16.52,5.28-33.23,9.93-49.91,14.67-15.87,4.52-31.73,9.11-47.34,14.46a398.56,398.56,0,0,0-40.48,16.21,253.56,253.56,0,0,0-37.3,21.3,182.85,182.85,0,0,0-32.11,28.19c-1.17,1.32-2.31,2.66-3.44,4a2.12,2.12,0,0,0,0,3,2.19,2.19,0,0,0,3,0Z"/><path class="cls-9" d="M1820.26,556.53a.92.92,0,0,1-.38-.09.81.81,0,0,1-.37-1.12l4.49-8.77a.87.87,0,0,1,1.15-.37.82.82,0,0,1,.37,1.12l-4.5,8.77A.83.83,0,0,1,1820.26,556.53Z"/><path class="cls-9" d="M1826.48,556.53a.86.86,0,0,1-.69-.35l-3.66-5a.82.82,0,0,1,.19-1.16.87.87,0,0,1,1.19.19l3.66,5a.82.82,0,0,1-.19,1.16A.85.85,0,0,1,1826.48,556.53Z"/><path class="cls-5" d="M466.38,1477.94a139.9,139.9,0,0,0-25.84,2,165,165,0,0,0-59.07,22.46c-.66.42-1.25.84-1.89,1.25,8.31-10.11,18.16-21.8,29.37-33.68,32.29-34.86,63.93-58.28,60.82-63.28-1.47-2.29-11.54.71-25.95,9a200.67,200.67,0,0,0-24,16.46,255.27,255.27,0,0,0-26.13,24.13,251.72,251.72,0,0,0-22.25,27.61c-2.89,4.24-5.5,8.35-7.84,12.29a369.23,369.23,0,0,0,3.05-38.56c.27-7.85.38-15.38.3-22.17s-.15-12.43,0-17.19c.21-9.44,1.69-15.55-.71-17.22-1.17-.74-3.3-.12-5.89,2.19s-5.42,6.38-7.65,11.81a79.29,79.29,0,0,0-4.8,19.16,219.26,219.26,0,0,0-2,22.72,189.88,189.88,0,0,0,2.5,40,87.25,87.25,0,0,0-13-18.45,89.08,89.08,0,0,0-20.23-15.9,75.32,75.32,0,0,0-10.23-4.75c-1.67-.6-3.23-1.25-4.82-1.68l-4.58-1.13c-11.84-2.49-19.35-.62-19.71,2-.46,2.92,5.73,6.12,14.37,11.37l3.37,2.05c1.17.7,2.31,1.58,3.53,2.37,2.48,1.52,4.9,3.49,7.53,5.36a124.09,124.09,0,0,1,28.41,30.39c1.67,2.73,3.46,5.27,4.78,7.82.22.4.45.78.68,1.16a92.77,92.77,0,0,0-11.35-6.85,106.51,106.51,0,0,0-23.27-8.29,107.75,107.75,0,0,0-24.64-2.46,84,84,0,0,0-19.95,2.8c-11.11,3.08-17,7.53-16.23,10.11.77,2.81,7.65,3.4,17.8,4.14,5.09.32,11,.87,17.53,1.61s13.55,2,20.87,3.56,14.14,3.69,20.38,5.69c9.93,3.19,24.72,13,35.27,10,8.12-2.36,14.83-8.36,22.22-12.22a352.62,352.62,0,0,1,40.11-18.27c38.22-14.86,72.48-17.52,72.65-23.4C490.06,1481.2,481.18,1478.28,466.38,1477.94Z"/></g><g id="landscape"><path class="cls-1" d="M1796,1002.09,964.48,1123a27.54,27.54,0,0,1-31.21-23.29L856.38,570.76a27.54,27.54,0,0,1,23.29-31.21l831.52-120.89A27.54,27.54,0,0,1,1742.4,442l76.9,528.93A27.53,27.53,0,0,1,1796,1002.09Z"/><g class="cls-10"><circle class="cls-11" cx="1267.57" cy="637.57" r="96.87" transform="translate(-79.57 1083.05) rotate(-45)"/><path class="cls-2" d="M908.88,931.89s161.59-278.06,478.49-237.47c273.52,35,399.8,33.93,399.8,33.93l39.1,285.42L937.45,1131.66,910.06,931.73"/><g class="cls-12"><path class="cls-13" d="M1795.25,718.76c-2.08-2-5.09-2.65-7.93-3.17-30.77-5.59-62.16-6.53-93.36-8.59-142.85-9.42-284.7-42.43-427.6-34-32,1.9-64.38,6-93.9,18.51a148.58,148.58,0,0,0-36,21.51c-7.36,6-13,13.94-19.77,20.61-8.55,8.45-42.62,28.48-32.54,43.91,1.66,2.54,4.5,4,7.33,5.14,13,5,27.52,2.89,41.25.58s28.12-4.71,41.33-.31,24.45,18.15,20.91,31.61c-2.43,9.2-11.11,17.93-7.42,26.68,3.15,7.46,13,8.79,21.1,8.57,42.46-1.19,83.62-14.51,125.82-19.33,17.25-2,37.66-1.16,47.91,12.86,3.5,4.8,5.53,10.88,10.32,14.41,4.1,3,9.48,3.56,14.56,3.66,48.84,1,94.65-29,143.43-26.37,13.14.7,26,3.78,39.16,5,38.19,3.49,76.46-9.22,109.44-28.8s61.44-45.76,89.64-71.75C1794.89,734,1801.1,724.44,1795.25,718.76Z"/></g><path class="cls-14" d="M1220,628.34a42.9,42.9,0,0,0-36.47-7c-.65.18-1.31.4-2,.63-3.59-10.54-13.51-19-24.43-22.36a49.24,49.24,0,0,0-49.34,12.9,20.32,20.32,0,0,0-4.79,7.61,46.54,46.54,0,0,0-29-3.69c-8.55,1.76-17.27,6.86-19.71,15.24a12.8,12.8,0,0,0-.1,6.36c-13.15-6.22-29.53-6-41.86,1.92-17.23,11-26.8,34.35-18.06,52.86l243.92-33.42C1238,646.56,1230.24,636.05,1220,628.34Z"/><path class="cls-14" d="M1577.83,524.72h-.22a3.87,3.87,0,0,0,0-.76c-.72-3.83-4.19-6.47-7.56-8.43a71.24,71.24,0,0,0-34.42-9.61c-7.54-.13-16,1.46-20.33,7.62-.2.29-.35.61-.52.91a63,63,0,0,0-26.12,2c-4.19,1.24-8.4,3-11.24,6.35-2.44,2.83-3.54,7-2.28,10.44a35.33,35.33,0,0,0-16.64,4.17c-2.67,1.44-5.32,3.49-6,6.43a5.16,5.16,0,0,0-.09.79,9.46,9.46,0,0,0-1.78-.3c-14.59-.72-28.35,13.11-27.85,27.71l174.93-24C1600.45,537.36,1588.92,525,1577.83,524.72Z"/></g><path class="cls-9" d="M842.71,633.45a1.67,1.67,0,0,1-1.65-1.43L824.14,518.15l118.75-17.64a1.67,1.67,0,1,1,.49,3.3L827.94,521l16.42,110.56a1.67,1.67,0,0,1-1.4,1.9Z"/><path class="cls-9" d="M919.79,1161.93l-17.94-120.76a1.67,1.67,0,0,1,3.31-.5l17.45,117.46,112.61-16.73a1.67,1.67,0,1,1,.49,3.31Z"/><path class="cls-9" d="M1688.5,1047.7a1.67,1.67,0,0,1-.24-3.33l117.08-17.4-16.72-112.52a1.68,1.68,0,0,1,1.41-1.9,1.66,1.66,0,0,1,1.9,1.41l17.21,115.83-120.39,17.89Z"/><path class="cls-9" d="M1729.88,509.43a1.67,1.67,0,0,1-1.65-1.43l-17.56-118.19L1597.2,406.67a1.67,1.67,0,0,1-.49-3.31L1713.49,386l18,121.5a1.68,1.68,0,0,1-1.41,1.9Z"/></g><g class="cls-15"><path class="cls-4" d="M2795.56,856.12,1951,977a27.88,27.88,0,0,1-31.67-23.29l-78.09-528.9a27.62,27.62,0,0,1,23.64-31.24l844.6-120.89a27.9,27.9,0,0,1,31.67,23.3l78.09,528.9A27.61,27.61,0,0,1,2795.56,856.12Z"/><g class="cls-16"><path class="cls-5" d="M1894.51,785.92s164.12-278,486-237.46c277.8,35,406.06,33.92,406.06,33.92l39.72,285.42L1923.54,985.69l-27.83-199.93"/><g class="cls-17"><path class="cls-18" d="M2557.27,594.48c-25.54-1.58-50.12-12.06-75.7-11.56-40.05.79-76.84,28.31-116.72,24.62-5-.46-10.34-1.63-13.64-5.34-2.94-3.32-3.69-8-6.19-11.67-3.41-5-9.6-7.35-15.59-8.5-27.79-5.34-54.91,9.3-81.17,19.72a289.85,289.85,0,0,1-139.33,18.44c-3.18-.36-6.52-.85-9.06-2.77-4.84-3.69-4.75-10.87-3.51-16.77,6.39-30.24,30.85-54.46,59-68.08s59.88-18.13,91.09-21.29a1250.49,1250.49,0,0,1,255.45.36c33.68,3.51,72.74,9.42,98.88,32.67C2633.8,573.67,2588,596.38,2557.27,594.48Z"/></g><path class="cls-14" d="M2052.85,490.47a80.13,80.13,0,0,0-67.27-12.72c-1.2.33-2.41.72-3.61,1.15-6.63-19.15-24.93-34.44-45.07-40.62-31.55-9.69-68.32-.22-91,23.43-3.77,3.93-7.24,8.75-8.83,13.83a87,87,0,0,0-53.43-6.71c-15.78,3.2-31.87,12.45-36.35,27.68a22.71,22.71,0,0,0-.2,11.55c-24.26-11.3-54.46-10.86-77.2,3.48-31.78,20-49.44,62.39-33.33,96l449.92-60.69C2086.12,523.57,2071.73,504.47,2052.85,490.47Z"/><path class="cls-14" d="M2580.43,416a1.48,1.48,0,0,0-.21,0,6.35,6.35,0,0,0,0-.76c-.73-3.84-4.27-6.47-7.69-8.44a73.2,73.2,0,0,0-35-9.61c-7.66-.13-16.23,1.47-20.65,7.63a10,10,0,0,0-.52.9,65,65,0,0,0-26.54,2c-4.25,1.24-8.53,3-11.41,6.35-2.47,2.84-3.6,7-2.32,10.44a36.34,36.34,0,0,0-16.9,4.17c-2.7,1.45-5.4,3.49-6.13,6.44a5,5,0,0,0-.09.78,9.08,9.08,0,0,0-1.81-.29c-14.82-.72-28.79,13.11-28.29,27.71l177.67-24C2603.41,428.63,2591.7,416.28,2580.43,416Z"/></g><path class="cls-4" d="M807.94,1143.91-36.66,1264.8a27.88,27.88,0,0,1-31.67-23.3l-78.1-528.89a27.62,27.62,0,0,1,23.64-31.24l844.6-120.89a27.88,27.88,0,0,1,31.67,23.3l78.1,528.89A27.62,27.62,0,0,1,807.94,1143.91Z"/><g class="cls-19"><path class="cls-5" d="M-93.11,1073.71S71,795.65,392.89,836.24c277.8,35,406.06,33.93,406.06,33.93l39.71,285.41-902.75,117.9-27.82-199.93"/><g class="cls-20"><path class="cls-18" d="M569.65,882.26c-25.54-1.58-50.12-12-75.7-11.55-40.05.78-76.84,28.3-116.72,24.62-5-.46-10.34-1.63-13.64-5.35-2.95-3.31-3.69-8-6.19-11.66-3.41-5-9.61-7.35-15.59-8.5-27.8-5.34-54.91,9.29-81.17,19.72A290,290,0,0,1,121.31,908c-3.18-.37-6.52-.85-9.06-2.78-4.84-3.68-4.75-10.86-3.51-16.76,6.39-30.25,30.85-54.46,59-68.08s59.88-18.14,91.09-21.3a1251.21,1251.21,0,0,1,255.45.37c33.68,3.5,72.74,9.41,98.87,32.66C646.18,861.46,600.39,884.17,569.65,882.26Z"/></g><path class="cls-14" d="M170.66,779.78a48.58,48.58,0,0,0-40.82-7.72c-.73.19-1.46.43-2.19.69-4-11.62-15.13-20.9-27.35-24.65-19.15-5.87-41.46-.13-55.23,14.22a22.54,22.54,0,0,0-5.36,8.39,52.81,52.81,0,0,0-32.43-4.06c-9.57,1.93-19.33,7.55-22.06,16.79a14,14,0,0,0-.12,7c-14.72-6.86-33.05-6.59-46.85,2.11C-81,804.73-91.75,830.42-82,850.82l273-36.84C190.86,799.86,182.12,788.27,170.66,779.78Z"/><path class="cls-14" d="M486.62,706h-.21a4.46,4.46,0,0,0,0-.73c-.71-3.7-4.23-6.23-7.64-8.12a74.59,74.59,0,0,0-34.9-9.13c-7.65-.09-16.22,1.49-20.66,7.47a7.77,7.77,0,0,0-.53.87,67.34,67.34,0,0,0-26.53,2.07c-4.25,1.22-8.54,3-11.44,6.19-2.48,2.75-3.63,6.81-2.36,10.11a37.47,37.47,0,0,0-16.91,4.1c-2.71,1.41-5.41,3.4-6.16,6.25a4.66,4.66,0,0,0-.09.75,9.79,9.79,0,0,0-1.81-.27c-14.81-.63-28.83,12.8-28.4,26.91l177.67-24C509.52,718.09,497.89,706.21,486.62,706Z"/><ellipse class="cls-6" cx="221.19" cy="714.02" rx="32.87" ry="32.36"/></g></g><g id="sky"><circle class="cls-6" cx="825.05" cy="397.17" r="210.41" transform="translate(-39.19 699.73) rotate(-45)"/><path class="cls-18" d="M774.41,434.52H194.62c-5.24-39.33,26.76-77.49,66.43-77.88,10.23-.1,20.93,2.3,28.57,9.09s11.26,18.68,6.43,27.7c-11-4.75-15.21-18.19-16.33-30.16-2.88-31,7.16-63.84,30.11-84.84s59.26-27.7,86.44-12.59,40.4,52.94,25.22,80.08c-11.84-34.42,1.76-73,23.15-102.42,17.74-24.44,41.71-45.43,70.61-54.18,31-9.37,64.56-4,95.34,6,19.88,6.4,39.61,14.93,54.76,29.3,35.4,33.55,36.89,91,19.32,136.52-7.09.78-11.68-8.86-8.69-15.34s10.28-9.75,17.22-11.4c25.41-6.06,53.87,3.35,70.66,23.35S784.77,410.54,774.41,434.52Z"/><path class="cls-5" d="M1997.86,265.26a34.53,34.53,0,0,0-21-2.58c1.63-5,.21-10.52-1.94-15.35a56.73,56.73,0,0,0-89.75-19.1,22.74,22.74,0,0,0-5.18-4.37c-6.18-3.76-13.58-4.85-20.75-5.79-15.34-2-31.58-3.59-45.72,2.69-9.86,4.38-18,14-19.88,24.19-3.15-2.25-7.27-3-11.17-3.62-9.62-1.41-19.71-2.24-28.83,1.12s-17,12-16.44,21.7a44.48,44.48,0,0,0-45.54-10.78c-15.55,5.43-25.86,24.63-27.46,41h353.58C2017.18,282.14,2009,270.52,1997.86,265.26Z"/></g><g id="woamn"><ellipse class="cls-5" cx="563.71" cy="1217.11" rx="318.07" ry="37.96"/><path class="cls-21" d="M696.65,823.51,733.49,1011s-113.44,1.65-155.14-58.21L602.11,788.6a26.35,26.35,0,0,1,32.57-21.76h0A88.9,88.9,0,0,1,696.65,823.51Z"/><path class="cls-22" d="M582.08,926l85.54,2.45,10.53-42.8c5.77-24.31,1.2-48.24-.68-64.94-2.91-25.82-14.43-49.39-37.54-49.91h-1.3a56.55,56.55,0,0,0-56.55,56.55Z"/><path class="cls-23" d="M637,1016.57l-6.87-89.22L529.66,926l6.57,203.38-148.66-7.74,10.23,74s90.74,12,190.78,21.4a31.73,31.73,0,0,0,34.71-30.56C624.93,1134.43,639.55,1033.45,637,1016.57Z"/><path class="cls-23" d="M761,941.49C709.3,930.4,622.53,926,622.53,926L559,1038.42c40.14,10.38,110.07-2.52,153.66-12.69l.1,0a7.83,7.83,0,0,1,9.49,8.43l0,.21-21.7,157.24,71.84-.43s29.79-158.45,30.33-196.93c0-.35,0-.69,0-1A52.66,52.66,0,0,0,761,941.49Z"/><path class="cls-24" d="M636.69,1040.63h-.12a1.68,1.68,0,0,1-1.55-1.79l3.9-53.43a1.67,1.67,0,0,1,3.33.24l-3.89,53.43A1.68,1.68,0,0,1,636.69,1040.63Z"/><polygon class="cls-25" points="705.51 1191.57 698.82 1217.26 815.61 1217.26 757.22 1191.23 705.51 1191.57"/><path class="cls-25" d="M389.61,1135.53l-49.43-6-26.27,63a17.82,17.82,0,0,0,16.44,24.68h34.81l-23-14.87,21.51-25L396,1181.5Z"/><path class="cls-7" d="M639.93,770.77c5.15,43.93,20,257.86-67.41,305.28a8.58,8.58,0,0,1-10.06-1.5l-44.27-43.46a69.24,69.24,0,0,1-3.07-95.59l50.13-56a8.62,8.62,0,0,0,2-3.81l17.9-77.37c4.63-22.89,21-33,40.66-33.86h0C630.31,764.28,639.4,766.28,639.93,770.77Z"/><path class="cls-24" d="M563.71,1157.89a1.68,1.68,0,0,1-1.17-.48l-27.48-26.86a1.67,1.67,0,1,1,2.34-2.39L564.88,1155a1.67,1.67,0,0,1-1.17,2.87Z"/><path class="cls-6" d="M873.89,691.18a47.14,47.14,0,0,0-6.85,1.35l-11.47,3.19L833,704.6l-8.75-24,21.29-6.45a32.88,32.88,0,0,0,16.56-11.48,51.45,51.45,0,0,1,7.41-8.05l3.67-3.12h0c2.61.51,3,3.73,2.34,6.33l-5.09,9.3Z"/><path class="cls-25" d="M865.23,686a.83.83,0,0,1-.37-1.58c2-1,4.49-7.48,5.63-11.35a.83.83,0,1,1,1.6.47c-.32,1.1-3.23,10.75-6.48,12.37A.85.85,0,0,1,865.23,686Z"/><path class="cls-7" d="M641.89,821.67S672.83,781.76,846.55,706L834,673.32s-196.68-3.79-246.44,116.62Z"/><path class="cls-25" d="M604.85,625.07c-15.61-1.37-31.35,3.72-44.13,15-22,19.44-7.76,45.71,15,49.4,24.14,3.91,29.41-14.18,58.11,1.73,11.76,6.52,19.63-2.89,20.68-14.36,1.53-16.64-8-32.64-21.48-41.66A60.14,60.14,0,0,0,604.85,625.07Z"/><path class="cls-6" d="M651.91,716.11a99.32,99.32,0,0,1,.12-12.84L696.72,709s8.74,54.82-20.26,49.38c-.57-.11-1.14-.24-1.69-.38l-4.83,43.41c-18.05-1.93-32.66-27.64-32.66-27.64C648.38,757.35,651.24,731.53,651.91,716.11Z"/><g class="cls-26"><path class="cls-27" d="M697.27,713.34l-17.92-3.56a11.53,11.53,0,0,0-8.45,1.59l-9.83,6.29,3.18-21,39,6.35-6,10.32"/></g><path class="cls-27" d="M674.77,758s-13.14-2.86-15.95-14.32c0,0-2.39,18.05,14.31,27.22Z"/><path class="cls-25" d="M690.4,720.6a2,2,0,1,0,2.25-1.74A2,2,0,0,0,690.4,720.6Z"/><path class="cls-25" d="M674.28,718.55a2,2,0,1,0,2.25-1.74A2,2,0,0,0,674.28,718.55Z"/><path class="cls-25" d="M687,732.75a4.76,4.76,0,0,1-.72-.06,1.67,1.67,0,0,1,.51-3.3c.21-1.44-1.33-6.13-3.44-10.34a1.67,1.67,0,0,1,3-1.5c2,4.05,5.14,11.26,3.1,14A2.93,2.93,0,0,1,687,732.75Z"/><path class="cls-25" d="M690.73,737.05l-13.83-4.4a1,1,0,0,0-1.25,1.46c3,6.09,11.91,21.67,16.26,5.08A1.79,1.79,0,0,0,690.73,737.05Z"/><path class="cls-22" d="M691,742.11s-1.69-4.3-5.65-1.58c0,0-4-4-7.38-2.18,0,0,2.66,8.16,7.38,8.42S691,742.11,691,742.11Z"/><path class="cls-25" d="M696.72,709,679,706.76a10.35,10.35,0,0,0-8,2.41l-17.07,14.66-6.11,24s-22.74-11.64-19.6-47.61c2.24-25.59,47.34-29,73.2-28.86,15,.09,24.06,17.19,15.17,29.31C713,705.47,707,708.92,696.72,709Z"/><path class="cls-6" d="M645.48,721.55a8.62,8.62,0,1,0,9.64-7.46A8.63,8.63,0,0,0,645.48,721.55Z"/><path class="cls-25" d="M658.31,720.58h-.07l-8.76-1.11a.56.56,0,0,1-.49-.63.55.55,0,0,1,.63-.49l8.77,1.11a.57.57,0,0,1-.08,1.13Z"/><path class="cls-25" d="M653.1,726.56h-.05a.57.57,0,0,1-.51-.62l.61-6.57a.53.53,0,0,1,.61-.51.57.57,0,0,1,.51.62l-.61,6.57A.56.56,0,0,1,653.1,726.56Z"/><path class="cls-25" d="M702.46,709.89a28.23,28.23,0,0,1-8.14-1.16.85.85,0,0,1,.55-1.6c.14,0,13.79,4.57,23.15-5.28a.84.84,0,0,1,1.19,0,.85.85,0,0,1,0,1.2A22.54,22.54,0,0,1,702.46,709.89Z"/><path class="cls-23" d="M655,676.42s-18,4.49-23.23,13.94l-3.81-1.85s1.06-17.87,26.9-18.77Z"/><path class="cls-6" d="M842.75,804.66,865,794.88a36.13,36.13,0,0,0,18-17.28l5.44-11.17h0a5.29,5.29,0,0,1,4.86,5.85l-3.49,10.93,28.19-14.48a2.58,2.58,0,0,1,3.58,1.24h0a2.59,2.59,0,0,1-.84,3.14l-18,12.53,27.19-9.35a2.29,2.29,0,0,1,1.9,4.16L906.69,793.2l24.38-6.35a2,2,0,0,1,1.34,3.82l-25.52,10.46,15.6,1a2.11,2.11,0,0,1,2,2h0a2.11,2.11,0,0,1-2,2.18l-12.72,1.54h0l-10.31,1.45a55.29,55.29,0,0,0-20.28,7.08L855.73,830.2Z"/><path class="cls-7" d="M868.52,788c-44.06,19.81-80.18,30-111.68,39.1a53.19,53.19,0,0,1-42.91-6c-59.68-37.29-77.51-56-77.51-56l-23.65,81c13.28,30.52,45.92,51.14,77,65.88a66.75,66.75,0,0,0,60.48-1.44c65.23-35.47,136-87.36,136-87.36Z"/><path class="cls-21" d="M638.64,881.63a1.68,1.68,0,0,1-.91-.26c-.66-.43-16.45-10.76-26.5-34.66a1.67,1.67,0,1,1,3.09-1.29c9.62,22.88,25.07,33,25.22,33.14a1.67,1.67,0,0,1-.9,3.07Z"/><path class="cls-21" d="M613,768.21a1.67,1.67,0,0,1-.56-3.24c8.39-3,18.18-3.65,28.29-1.81a1.67,1.67,0,0,1-.59,3.29c-9.54-1.73-18.73-1.15-26.57,1.67A1.88,1.88,0,0,1,613,768.21Z"/><path class="cls-21" d="M568.93,947.43a1.68,1.68,0,0,1-1.36-.7c-21.42-29.9-4-67.54-3.83-67.92a1.68,1.68,0,0,1,3,1.43c-.17.36-16.74,36.27,3.52,64.54a1.67,1.67,0,0,1-.39,2.33A1.59,1.59,0,0,1,568.93,947.43Z"/></g><g id="man"><ellipse class="cls-5" cx="1923.73" cy="1415.21" rx="247.39" ry="29.52"/><path class="cls-24" d="M1985.42,843.87s16.69,362.53,118.9,517.65l56.81-17s-57.26-346.06-54.94-534.58Z"/><path class="cls-23" d="M1938.68,832.07s-85.19,352.77-30.35,530.25l59.31-.48s63.3-452.17,121.87-541.62Z"/><path class="cls-28" d="M1969.69,1348.79H1904.2a1.24,1.24,0,1,1,0-2.47h65.49a1.24,1.24,0,1,1,0,2.47Z"/><path class="cls-28" d="M2097.05,1351.12a1.23,1.23,0,0,1-.37-2.41l61.78-19.61a1.23,1.23,0,0,1,.75,2.35l-61.79,19.61A1.19,1.19,0,0,1,2097.05,1351.12Z"/><path class="cls-24" d="M1936.94,1351.56a1.66,1.66,0,0,1-1.66-1.56c0-.62-4-62.55,1.75-147.84,5.32-78.74,20.26-194.08,61.23-296.43a1.67,1.67,0,0,1,3.11,1.24c-40.81,101.95-55.7,216.92-61,295.42-5.75,85.07-1.8,146.78-1.76,147.39a1.67,1.67,0,0,1-1.56,1.78Z"/><path class="cls-23" d="M2127.94,1341.75a1.65,1.65,0,0,1-1.61-1.25c-.81-3.09-80.81-310.87-78.38-412.59a1.68,1.68,0,0,1,1.67-1.64h0a1.67,1.67,0,0,1,1.63,1.72c-2.41,101.26,77.46,408.58,78.27,411.67a1.67,1.67,0,0,1-1.19,2A1.63,1.63,0,0,1,2127.94,1341.75Z"/><polygon class="cls-25" points="1956.32 1361.86 1962.06 1415.21 1839.59 1415.21 1921.26 1383.64 1917.36 1362.25 1956.32 1361.86"/><polygon class="cls-25" points="2056.51 1415.21 2114.64 1415.21 2171.5 1391.16 2150.89 1347.56 2114.01 1358.61 2122.46 1376.16 2100.37 1399.31 2056.51 1415.21"/><path class="cls-6" d="M1658.25,658.09l-14,8a5.39,5.39,0,0,0-2.14,6.9h0l20.69-9.63Z"/><path class="cls-6" d="M1857.39,565.92a81.83,81.83,0,0,1-2.46-14l-66.35,29.16s27.89,68,52.48,40.93c.44-.48,21,41.3,21,41.3,16.1-7.31,29.72-34.8,31.34-41A156.53,156.53,0,0,1,1857.39,565.92Z"/><g class="cls-29"><path class="cls-27" d="M1878.81,605.39s-16.76,23.78-51.79-5.55h0l3.51-10,41.93,6.39,6.35,9.17"/></g><path class="cls-25" d="M1798.15,581.58s44.16,32.83,66.2,24.64,2.35-72.85,2.35-72.85L1790,569.1Z"/><path class="cls-6" d="M1828.49,590.78a8.17,8.17,0,1,1-10.86-4A8.17,8.17,0,0,1,1828.49,590.78Z"/><path class="cls-7" d="M1965.11,628.64a59.78,59.78,0,0,0-4.06-5.68c-17-20.55-46.19-27.07-70.22-14.83-25.69,13.09-53.56,36.87-61.35,79.57-7.21,39.48,20.81,98,52.73,149.24a339.85,339.85,0,0,1,35.06,74.78c8.22,25.37,14.29,53.69,13.22,80.34,0,0,152.51-63.22,193.68-201.94l-14.91-9.43A414.72,414.72,0,0,1,1983.7,657.06Z"/><g class="cls-30"><path class="cls-21" d="M1845.78,1027.21c24.57-3.69,44.34-16.24,59.69-31.23,33.83-33,48.88-78.19,52.57-124.51A324.34,324.34,0,0,0,1949.92,771c-3.09-13-10.7-29.28-26.41-32.17-6.13-1.14-12,.26-17.16,2.23-32.81,12.5-43.9,45-54.93,73.89a554.81,554.81,0,0,1-40.8,84.66c-16.12,27.3-35.47,55-37.17,87.8C1771.73,1020.39,1811.12,1032.41,1845.78,1027.21Z"/></g><polygon class="cls-7" points="1886.59 631.94 1716.92 654 1715.63 692.12 1871.02 727.23 1886.59 631.94"/><polygon class="cls-6" points="1716.79 657.76 1689.37 656.88 1701.76 683.48 1715.85 685.81 1716.79 657.76"/><path class="cls-6" d="M1653.64,661.39l6.79-14.54a14.14,14.14,0,0,1,20.72-3.79l18.23,14.14Z"/><path class="cls-23" d="M1676.37,657.31l-18,8.39h0a9.75,9.75,0,0,1,4.72-13l.36-.16a9.74,9.74,0,0,1,12.94,4.72Z"/><rect class="cls-28" x="1587.34" y="674.14" width="120.8" height="72.87" rx="5.33" transform="translate(-145.95 761.86) rotate(-24.97)"/><rect class="cls-23" x="1601.13" y="692.08" width="66.22" height="50.09" transform="translate(-149.98 756.77) rotate(-24.97)"/><path class="cls-23" d="M1681.69,677.35a6.3,6.3,0,1,1-8.37-3.06A6.29,6.29,0,0,1,1681.69,677.35Z"/><path class="cls-23" d="M1688.35,691.67a6.3,6.3,0,1,1-8.37-3.06A6.28,6.28,0,0,1,1688.35,691.67Z"/><path class="cls-23" d="M1695,706a6.3,6.3,0,1,1-8.37-3.06A6.29,6.29,0,0,1,1695,706Z"/><rect class="cls-28" x="1596.33" y="663.11" width="39.46" height="16.08" rx="2.53" transform="translate(-132.27 744.8) rotate(-24.97)"/><rect class="cls-31" x="1605.62" y="678.22" width="29.62" height="4.64" transform="translate(-135.83 747.53) rotate(-24.97)"/><path class="cls-6" d="M1633.65,757.32l-18,8.38s-1.11-7.89-10.29-19.46c-4.84-6.09-8.6-8.86-11.08-10.11a1.59,1.59,0,0,0-2.16,2l12.13,29.1a10.48,10.48,0,0,0,4.19,4.9l37.16,22.91,9-30.8Z"/><path class="cls-9" d="M1866.35,513.23a20.05,20.05,0,0,0-6.75.94c1.15-.31-5.49-9.35-6.73-10.23a17.14,17.14,0,0,0-12.8-2.93,11.86,11.86,0,0,0-4.07,1.52c-12.19-21.42-44.91-3.56-44.64,17.24a16.63,16.63,0,0,0,.27,2.63l-.32-.17c-4-1.83-8.75-1.63-13-.3-15.93,5-23.27,26.44-9.12,38-4.68,2.37-7.67,8-6.46,13.22,5.85,25,47.46,5,61.38-.51a319.7,319.7,0,0,0,29.92-13.46c12.93-6.74,33.44-15.56,27.13-34.08C1879,518.76,1873,513.75,1866.35,513.23Z"/><path class="cls-21" d="M1651.18,806.76a1.47,1.47,0,0,1-.46-.07,1.67,1.67,0,0,1-1.15-2.07L1662,760.88a1.67,1.67,0,1,1,3.21.92l-12.46,43.74A1.67,1.67,0,0,1,1651.18,806.76Z"/><path class="cls-21" d="M1722.87,694.69a1.47,1.47,0,0,1-.36,0,1.67,1.67,0,0,1-1.27-2l0-.1c.26-2.24.91-24.17,1.3-38.62a1.7,1.7,0,0,1,1.72-1.63,1.67,1.67,0,0,1,1.62,1.72c-1.05,39.57-1.16,39.66-2,40.32A1.67,1.67,0,0,1,1722.87,694.69Z"/><path class="cls-7" d="M1840.07,656.48l-34.39,95.74a51.15,51.15,0,0,1-62.17,31.89l-87.43-24.92L1644.47,799s128.93,123,213.39,61.63,88.63-126.86,88.63-126.86Z"/><path class="cls-21" d="M1818.89,717.12a1.74,1.74,0,0,1-.45-.06,1.68,1.68,0,0,1-1.17-2.06c0-.14,3.92-14.07,10.12-30.69,8.35-22.4,16.7-38.76,24.82-48.63a1.68,1.68,0,1,1,2.59,2.13c-18.85,22.91-34.15,77.54-34.3,78.09A1.67,1.67,0,0,1,1818.89,717.12Z"/><path class="cls-9" d="M1673.82,654.81a.86.86,0,0,1-.59-.24.84.84,0,0,1,0-1.18l4.52-4.62a.83.83,0,0,1,1.18,0,.84.84,0,0,1,0,1.18l-4.52,4.62A.83.83,0,0,1,1673.82,654.81Z"/><path class="cls-9" d="M1630.85,764.25h-.11l-8.36-1.13a.84.84,0,0,1,.22-1.66l8.36,1.13a.83.83,0,0,1-.11,1.66Z"/></g></svg>