<svg xmlns="http://www.w3.org/2000/svg" viewBox="0 0 425.91 400.45"><defs><style>.cls-1,.cls-10,.cls-13{fill:#1ab76c;}.cls-1,.cls-10,.cls-11,.cls-12,.cls-14,.cls-2,.cls-3,.cls-4,.cls-5,.cls-6,.cls-8{stroke:#263238;}.cls-1,.cls-2,.cls-4,.cls-5,.cls-8{stroke-linecap:round;stroke-linejoin:round;}.cls-11,.cls-2,.cls-5{fill:none;}.cls-2{stroke-width:0.5px;}.cls-3{fill:#d4d4d4;}.cls-10,.cls-11,.cls-12,.cls-14,.cls-3,.cls-6{stroke-miterlimit:10;}.cls-4,.cls-6{fill:#263238;}.cls-12,.cls-15,.cls-7,.cls-9{fill:#fff;}.cls-7{opacity:0.56;}.cls-8{fill:#b0b0b0;}.cls-9{opacity:0.53;}.cls-13,.cls-15{opacity:0.59;}.cls-14{opacity:0.31;}</style></defs><g id="Oregano"><path class="cls-1" d="M188.28,383.26l-3.49,5.22s-9.16,3-11.5,7.37-5.34,15-4.83,19,3.74,6.6,6,6.21,6.05-4.61,9-8.27,6.85-11.14,6.2-15-2.49-4.73-2.45-7.3S191,380.17,188.28,383.26Z" transform="translate(-47.79 -21.15)"/><path class="cls-2" d="M176.05,413.68c-2.21,3.73-2.09,4.52-2.09,4.52" transform="translate(-47.79 -21.15)"/><path class="cls-2" d="M187.76,386.41s-8.36,21.22-11.09,26.22" transform="translate(-47.79 -21.15)"/><path class="cls-2" d="M174.78,399.14c-1.53,1.52-2.25,2.38-2.25,2.38" transform="translate(-47.79 -21.15)"/><path class="cls-2" d="M184.31,391a11.38,11.38,0,0,1-1.29,3c-.68.86-5.26,2.42-7.36,4.24" transform="translate(-47.79 -21.15)"/><path class="cls-2" d="M173.25,404s4.6-2,5.85-2.68a7.1,7.1,0,0,0,2.38-1.55c.21-.42,1.08-2.89,1.08-2.89" transform="translate(-47.79 -21.15)"/><path class="cls-2" d="M178.69,406.18s-4.24,1.32-6.4,2.05a4,4,0,0,0-2.6,2.66" transform="translate(-47.79 -21.15)"/><path class="cls-2" d="M171.54,414.27a5.86,5.86,0,0,1,1-.84c1.54-1,3.91-2.23,3.91-2.23" transform="translate(-47.79 -21.15)"/><path class="cls-2" d="M170.38,415.89a3.42,3.42,0,0,1,.27-.5" transform="translate(-47.79 -21.15)"/><path class="cls-2" d="M184.63,402.68a6.33,6.33,0,0,1,.51,2.14,16.58,16.58,0,0,1-.69,4.49" transform="translate(-47.79 -21.15)"/><path class="cls-2" d="M182.94,399.53a19.77,19.77,0,0,1,1.19,2" transform="translate(-47.79 -21.15)"/><path class="cls-2" d="M181.52,410.08a5.12,5.12,0,0,1,.06,1.41,14.78,14.78,0,0,1-.81,3.86" transform="translate(-47.79 -21.15)"/><path class="cls-2" d="M179.93,406.2a12.2,12.2,0,0,1,1.32,2.75" transform="translate(-47.79 -21.15)"/><path class="cls-2" d="M187.74,399a6.53,6.53,0,0,1,.16,1.81" transform="translate(-47.79 -21.15)"/><path class="cls-2" d="M185.37,394.17a14.44,14.44,0,0,1,2,3.7" transform="translate(-47.79 -21.15)"/><path class="cls-1" d="M413.76,312.57l.1-6.28s6.06-7.48,5.65-12.43-3.67-15.51-6.26-18.58-6.73-3.51-8.44-1.94-2.57,7.15-3,11.8.3,13.08,2.94,16,4.66,2.62,6,4.79S413.13,316.66,413.76,312.57Z" transform="translate(-47.79 -21.15)"/><path class="cls-2" d="M407.5,280.39c-.16-4.34-.69-4.94-.69-4.94" transform="translate(-47.79 -21.15)"/><path class="cls-2" d="M412.48,309.64s-4.5-22.36-4.92-28" transform="translate(-47.79 -21.15)"/><path class="cls-2" d="M416.47,291.91c.46-2.12.6-3.23.6-3.23" transform="translate(-47.79 -21.15)"/><path class="cls-2" d="M412.87,303.88a11.3,11.3,0,0,1-.56-3.24c.1-1.09,3.1-4.89,3.88-7.55" transform="translate(-47.79 -21.15)"/><path class="cls-2" d="M415.1,287s-2.77,4.18-3.46,5.43a7.26,7.26,0,0,0-1.15,2.6c.05.46.66,3,.66,3" transform="translate(-47.79 -21.15)"/><path class="cls-2" d="M409.36,288.11s2.85-3.41,4.26-5.19a4,4,0,0,0,.74-3.65" transform="translate(-47.79 -21.15)"/><path class="cls-2" d="M411,277.44a6.43,6.43,0,0,1-.39,1.26c-.74,1.69-2.08,4-2.08,4" transform="translate(-47.79 -21.15)"/><path class="cls-2" d="M411.07,275.45a5.56,5.56,0,0,1,0,.57" transform="translate(-47.79 -21.15)"/><path class="cls-2" d="M406.28,294.28a6.32,6.32,0,0,1-1.6-1.52,16.59,16.59,0,0,1-1.86-4.14" transform="translate(-47.79 -21.15)"/><path class="cls-2" d="M409.41,296a20.06,20.06,0,0,1-2.11-1.07" transform="translate(-47.79 -21.15)"/><path class="cls-2" d="M404.87,286.38a5.47,5.47,0,0,1-.82-1.15,15,15,0,0,1-1.41-3.68" transform="translate(-47.79 -21.15)"/><path class="cls-2" d="M408.31,288.77a12.06,12.06,0,0,1-2.6-1.59" transform="translate(-47.79 -21.15)"/><path class="cls-2" d="M405.64,299a6.49,6.49,0,0,1-1.12-1.43" transform="translate(-47.79 -21.15)"/><path class="cls-2" d="M410.28,301.83a14.89,14.89,0,0,1-3.71-2" transform="translate(-47.79 -21.15)"/><path class="cls-1" d="M60.38,258.84l.11-6.27s6.05-7.49,5.64-12.44-3.66-15.5-6.26-18.58-6.73-3.51-8.43-1.94-2.57,7.16-3,11.8.29,13.08,2.94,16,4.66,2.62,6,4.79S59.75,262.93,60.38,258.84Z" transform="translate(-47.79 -21.15)"/><path class="cls-2" d="M54.13,226.66c-.16-4.33-.7-4.94-.7-4.94" transform="translate(-47.79 -21.15)"/><path class="cls-2" d="M59.11,255.91s-4.5-22.35-4.92-28" transform="translate(-47.79 -21.15)"/><path class="cls-2" d="M63.1,238.18c.46-2.11.59-3.23.59-3.23" transform="translate(-47.79 -21.15)"/><path class="cls-2" d="M59.49,250.16a11.39,11.39,0,0,1-.56-3.25c.11-1.08,3.11-4.88,3.89-7.55" transform="translate(-47.79 -21.15)"/><path class="cls-2" d="M61.73,233.24s-2.77,4.19-3.46,5.44a7,7,0,0,0-1.15,2.59c0,.47.66,3,.66,3" transform="translate(-47.79 -21.15)"/><path class="cls-2" d="M56,234.39s2.84-3.42,4.26-5.2a4,4,0,0,0,.74-3.65" transform="translate(-47.79 -21.15)"/><path class="cls-2" d="M57.6,223.71a6.09,6.09,0,0,1-.4,1.26c-.74,1.69-2.07,4-2.07,4" transform="translate(-47.79 -21.15)"/><path class="cls-2" d="M57.7,221.72a4.66,4.66,0,0,1,0,.57" transform="translate(-47.79 -21.15)"/><path class="cls-2" d="M52.9,240.55A6.11,6.11,0,0,1,51.31,239a16.59,16.59,0,0,1-1.86-4.14" transform="translate(-47.79 -21.15)"/><path class="cls-2" d="M56,242.28a18.33,18.33,0,0,1-2.1-1.07" transform="translate(-47.79 -21.15)"/><path class="cls-2" d="M51.49,232.66a5.32,5.32,0,0,1-.81-1.15,14.43,14.43,0,0,1-1.41-3.69" transform="translate(-47.79 -21.15)"/><path class="cls-2" d="M54.93,235.05a11.94,11.94,0,0,1-2.59-1.6" transform="translate(-47.79 -21.15)"/><path class="cls-2" d="M52.26,245.3a7,7,0,0,1-1.11-1.43" transform="translate(-47.79 -21.15)"/><path class="cls-2" d="M56.9,248.1a14.51,14.51,0,0,1-3.71-2" transform="translate(-47.79 -21.15)"/><path class="cls-1" d="M334.11,325.9l-3.49,5.21s-9.15,3-11.5,7.37-5.34,15-4.83,19,3.74,6.6,6,6.21,6.05-4.61,8.95-8.26,6.86-11.14,6.2-15S333,335.7,333,333.14,336.86,322.81,334.11,325.9Z" transform="translate(-47.79 -21.15)"/><path class="cls-2" d="M321.88,356.31c-2.21,3.73-2.09,4.53-2.09,4.53" transform="translate(-47.79 -21.15)"/><path class="cls-2" d="M333.59,329.05s-8.36,21.21-11.09,26.21" transform="translate(-47.79 -21.15)"/><path class="cls-2" d="M320.61,341.77c-1.53,1.53-2.25,2.39-2.25,2.39" transform="translate(-47.79 -21.15)"/><path class="cls-2" d="M330.14,333.67a11.19,11.19,0,0,1-1.29,3c-.68.85-5.26,2.42-7.36,4.23" transform="translate(-47.79 -21.15)"/><path class="cls-2" d="M319.08,346.66s4.6-2,5.86-2.68a7.26,7.26,0,0,0,2.37-1.56c.22-.41,1.08-2.89,1.08-2.89" transform="translate(-47.79 -21.15)"/><path class="cls-2" d="M324.52,348.82s-4.24,1.32-6.4,2.05a4,4,0,0,0-2.6,2.66" transform="translate(-47.79 -21.15)"/><path class="cls-2" d="M317.37,356.91a6.38,6.38,0,0,1,1-.85c1.54-1,3.91-2.22,3.91-2.22" transform="translate(-47.79 -21.15)"/><path class="cls-2" d="M316.21,358.52a5.35,5.35,0,0,1,.27-.5" transform="translate(-47.79 -21.15)"/><path class="cls-2" d="M330.46,345.31a6.66,6.66,0,0,1,.52,2.15,17.12,17.12,0,0,1-.69,4.49" transform="translate(-47.79 -21.15)"/><path class="cls-2" d="M328.77,342.17a18.93,18.93,0,0,1,1.19,2" transform="translate(-47.79 -21.15)"/><path class="cls-2" d="M327.35,352.71a5.57,5.57,0,0,1,.07,1.41,14.85,14.85,0,0,1-.82,3.86" transform="translate(-47.79 -21.15)"/><path class="cls-2" d="M325.76,348.83a11.93,11.93,0,0,1,1.32,2.76" transform="translate(-47.79 -21.15)"/><path class="cls-2" d="M333.57,341.68a6.46,6.46,0,0,1,.16,1.81" transform="translate(-47.79 -21.15)"/><path class="cls-2" d="M331.2,336.8a14.65,14.65,0,0,1,2,3.7" transform="translate(-47.79 -21.15)"/><path class="cls-1" d="M269.5,146.86,266,152.08s-9.15,3-11.5,7.37-5.34,15-4.83,19,3.74,6.6,6,6.21,6-4.61,8.94-8.26,6.86-11.15,6.2-15-2.49-4.73-2.45-7.29S272.25,143.77,269.5,146.86Z" transform="translate(-47.79 -21.15)"/><path class="cls-2" d="M257.28,177.28c-2.22,3.73-2.1,4.53-2.1,4.53" transform="translate(-47.79 -21.15)"/><path class="cls-2" d="M269,150s-8.37,21.21-11.1,26.21" transform="translate(-47.79 -21.15)"/><path class="cls-2" d="M256,162.74c-1.54,1.52-2.26,2.38-2.26,2.38" transform="translate(-47.79 -21.15)"/><path class="cls-2" d="M265.53,154.64a11.19,11.19,0,0,1-1.29,3c-.67.85-5.26,2.41-7.36,4.23" transform="translate(-47.79 -21.15)"/><path class="cls-2" d="M254.47,167.63s4.6-2,5.86-2.68a7.26,7.26,0,0,0,2.37-1.56c.22-.41,1.09-2.89,1.09-2.89" transform="translate(-47.79 -21.15)"/><path class="cls-2" d="M259.91,169.78s-4.24,1.33-6.4,2.06a4,4,0,0,0-2.6,2.66" transform="translate(-47.79 -21.15)"/><path class="cls-2" d="M252.76,177.87a6.35,6.35,0,0,1,1-.84c1.54-1,3.91-2.23,3.91-2.23" transform="translate(-47.79 -21.15)"/><path class="cls-2" d="M251.6,179.49a4.48,4.48,0,0,1,.28-.5" transform="translate(-47.79 -21.15)"/><path class="cls-2" d="M265.85,166.28a6.41,6.41,0,0,1,.52,2.15,17.12,17.12,0,0,1-.69,4.49" transform="translate(-47.79 -21.15)"/><path class="cls-2" d="M264.16,163.13a19.77,19.77,0,0,1,1.19,2" transform="translate(-47.79 -21.15)"/><path class="cls-2" d="M262.75,173.68a6.06,6.06,0,0,1,.06,1.41A14.85,14.85,0,0,1,262,179" transform="translate(-47.79 -21.15)"/><path class="cls-2" d="M261.16,169.8a12.2,12.2,0,0,1,1.31,2.75" transform="translate(-47.79 -21.15)"/><path class="cls-2" d="M269,162.65a6.83,6.83,0,0,1,.17,1.8" transform="translate(-47.79 -21.15)"/><path class="cls-2" d="M266.59,157.77a14.65,14.65,0,0,1,2,3.7" transform="translate(-47.79 -21.15)"/><path class="cls-1" d="M254.2,288.4l.55-6.25s6.58-7,6.52-12-2.54-15.73-4.91-19-6.46-4-8.28-2.54-3.07,7-3.85,11.56-.64,13.06,1.79,16.12,4.46,2.95,5.66,5.21S253.28,292.43,254.2,288.4Z" transform="translate(-47.79 -21.15)"/><path class="cls-2" d="M250.26,255.85c.15-4.33-.34-5-.34-5" transform="translate(-47.79 -21.15)"/><path class="cls-2" d="M253.14,285.39s-2.89-22.62-2.91-28.32" transform="translate(-47.79 -21.15)"/><path class="cls-2" d="M258.38,268c.61-2.08.83-3.18.83-3.18" transform="translate(-47.79 -21.15)"/><path class="cls-2" d="M253.94,279.67a11.26,11.26,0,0,1-.33-3.27c.18-1.08,3.45-4.65,4.41-7.26" transform="translate(-47.79 -21.15)"/><path class="cls-2" d="M257.37,263s-3.06,4-3.84,5.17a7.35,7.35,0,0,0-1.33,2.51c0,.47.45,3.06.45,3.06" transform="translate(-47.79 -21.15)"/><path class="cls-2" d="M251.57,263.69s3.08-3.2,4.62-4.88a4,4,0,0,0,1-3.58" transform="translate(-47.79 -21.15)"/><path class="cls-2" d="M253.94,253.16a6.42,6.42,0,0,1-.49,1.23c-.86,1.63-2.36,3.83-2.36,3.83" transform="translate(-47.79 -21.15)"/><path class="cls-2" d="M254.17,251.18a4.4,4.4,0,0,1,0,.58" transform="translate(-47.79 -21.15)"/><path class="cls-2" d="M248.05,269.62a6.12,6.12,0,0,1-1.49-1.63,16.79,16.79,0,0,1-1.55-4.26" transform="translate(-47.79 -21.15)"/><path class="cls-2" d="M251.05,271.57a19.57,19.57,0,0,1-2-1.21" transform="translate(-47.79 -21.15)"/><path class="cls-2" d="M247.21,261.65a5.61,5.61,0,0,1-.74-1.21,14.81,14.81,0,0,1-1.14-3.78" transform="translate(-47.79 -21.15)"/><path class="cls-2" d="M250.47,264.28A12,12,0,0,1,248,262.5" transform="translate(-47.79 -21.15)"/><path class="cls-2" d="M247.07,274.31a6.64,6.64,0,0,1-1-1.51" transform="translate(-47.79 -21.15)"/><path class="cls-2" d="M251.5,277.44a14.56,14.56,0,0,1-3.56-2.26" transform="translate(-47.79 -21.15)"/><path class="cls-1" d="M318.6,221.34l.55-6.25s6.58-7,6.52-12-2.54-15.72-4.91-19-6.46-4-8.28-2.53-3.07,6.95-3.85,11.55-.64,13.06,1.79,16.13,4.46,2.94,5.66,5.21S317.68,225.38,318.6,221.34Z" transform="translate(-47.79 -21.15)"/><path class="cls-2" d="M314.66,188.8c.15-4.34-.34-5-.34-5" transform="translate(-47.79 -21.15)"/><path class="cls-2" d="M317.54,218.33s-2.89-22.62-2.91-28.32" transform="translate(-47.79 -21.15)"/><path class="cls-2" d="M322.78,200.93c.61-2.08.83-3.18.83-3.18" transform="translate(-47.79 -21.15)"/><path class="cls-2" d="M318.34,212.62a11.35,11.35,0,0,1-.33-3.28c.18-1.07,3.45-4.65,4.41-7.25" transform="translate(-47.79 -21.15)"/><path class="cls-2" d="M321.77,195.91s-3.06,4-3.84,5.17a7.18,7.18,0,0,0-1.33,2.51c0,.46.45,3,.45,3" transform="translate(-47.79 -21.15)"/><path class="cls-2" d="M316,196.64s3.08-3.2,4.62-4.88a4,4,0,0,0,1-3.59" transform="translate(-47.79 -21.15)"/><path class="cls-2" d="M318.34,186.1a6.42,6.42,0,0,1-.49,1.23c-.86,1.64-2.35,3.84-2.35,3.84" transform="translate(-47.79 -21.15)"/><path class="cls-2" d="M318.58,184.13s0,.21,0,.57" transform="translate(-47.79 -21.15)"/><path class="cls-2" d="M312.45,202.57a6.44,6.44,0,0,1-1.49-1.63,16.79,16.79,0,0,1-1.55-4.27" transform="translate(-47.79 -21.15)"/><path class="cls-2" d="M315.45,204.51a19.57,19.57,0,0,1-2-1.21" transform="translate(-47.79 -21.15)"/><path class="cls-2" d="M311.61,194.59a5.32,5.32,0,0,1-.74-1.2,14.81,14.81,0,0,1-1.14-3.78" transform="translate(-47.79 -21.15)"/><path class="cls-2" d="M314.87,197.22a12,12,0,0,1-2.48-1.78" transform="translate(-47.79 -21.15)"/><path class="cls-2" d="M311.47,207.25a6.58,6.58,0,0,1-1-1.5" transform="translate(-47.79 -21.15)"/><path class="cls-2" d="M315.9,210.38a14.56,14.56,0,0,1-3.56-2.26" transform="translate(-47.79 -21.15)"/><path class="cls-1" d="M204.18,225.14l3.5,5.21s-.71,9.61,2.44,13.44,11.85,10.65,15.73,11.7,7.54-1,8-3.22-2-7.34-4.24-11.41-7.7-10.58-11.51-11.44-5.32.5-7.68-.51S202.37,221.42,204.18,225.14Z" transform="translate(-47.79 -21.15)"/><path class="cls-2" d="M227.66,248c2.61,3.46,3.39,3.65,3.39,3.65" transform="translate(-47.79 -21.15)"/><path class="cls-2" d="M206.9,226.81s16.44,15.81,20,20.24" transform="translate(-47.79 -21.15)"/><path class="cls-2" d="M213.73,243.66c.83,2,1.35,3,1.35,3" transform="translate(-47.79 -21.15)"/><path class="cls-2" d="M209.87,231.77a11.22,11.22,0,0,1,2.3,2.34c.54.95.24,5.79,1.11,8.42" transform="translate(-47.79 -21.15)"/><path class="cls-2" d="M217.67,246.93s-.11-5-.25-6.43a7.24,7.24,0,0,0-.54-2.79c-.3-.35-2.26-2.1-2.26-2.1" transform="translate(-47.79 -21.15)"/><path class="cls-2" d="M221.73,242.73s-.39,4.42-.53,6.69a4,4,0,0,0,1.47,3.42" transform="translate(-47.79 -21.15)"/><path class="cls-2" d="M226.49,252.42a6.79,6.79,0,0,1-.39-1.27c-.35-1.81-.57-4.46-.57-4.46" transform="translate(-47.79 -21.15)"/><path class="cls-2" d="M227.55,254.11a5.05,5.05,0,0,1-.36-.45" transform="translate(-47.79 -21.15)"/><path class="cls-2" d="M220.75,235.9a6.4,6.4,0,0,1,2.18.34,16.72,16.72,0,0,1,3.89,2.34" transform="translate(-47.79 -21.15)"/><path class="cls-2" d="M217.2,236.27a19.13,19.13,0,0,1,2.33-.33" transform="translate(-47.79 -21.15)"/><path class="cls-2" d="M226.41,241.59a5.16,5.16,0,0,1,1.33.48,14.63,14.63,0,0,1,3.26,2.22" transform="translate(-47.79 -21.15)"/><path class="cls-2" d="M222.22,241.58a12,12,0,0,1,3.05-.17" transform="translate(-47.79 -21.15)"/><path class="cls-2" d="M218.57,231.64a6.63,6.63,0,0,1,1.74.54" transform="translate(-47.79 -21.15)"/><path class="cls-2" d="M213.16,232a14.37,14.37,0,0,1,4.19-.47" transform="translate(-47.79 -21.15)"/><path class="cls-1" d="M204.28,168,202,173.9s-8.25,5-9.56,9.75-1.87,15.82-.48,19.6,5.12,5.6,7.26,4.71,4.87-5.84,6.88-10.05,4.2-12.39,2.7-16-3.48-4.06-4-6.56S206.27,164.42,204.28,168Z" transform="translate(-47.79 -21.15)"/><path class="cls-2" d="M199.13,200.42c-1.33,4.12-1,4.87-1,4.87" transform="translate(-47.79 -21.15)"/><path class="cls-2" d="M204.48,171.23s-3.43,22.54-5,28" transform="translate(-47.79 -21.15)"/><path class="cls-2" d="M194.66,186.52c-1.16,1.83-1.67,2.83-1.67,2.83" transform="translate(-47.79 -21.15)"/><path class="cls-2" d="M202.14,176.51a11.21,11.21,0,0,1-.58,3.23c-.47,1-4.59,3.53-6.24,5.77" transform="translate(-47.79 -21.15)"/><path class="cls-2" d="M194.25,191.63s4-3,5.11-3.92,1.85-1.6,2-2.05.41-3,.41-3" transform="translate(-47.79 -21.15)"/><path class="cls-2" d="M200,192.52s-3.84,2.23-5.78,3.43a4,4,0,0,0-1.94,3.17" transform="translate(-47.79 -21.15)"/><path class="cls-2" d="M194.86,202a7.24,7.24,0,0,1,.81-1.05c1.27-1.33,3.32-3,3.32-3" transform="translate(-47.79 -21.15)"/><path class="cls-2" d="M194.09,203.83a3.89,3.89,0,0,1,.16-.54" transform="translate(-47.79 -21.15)"/><path class="cls-2" d="M205.05,187.78a6.36,6.36,0,0,1,1,2,16.52,16.52,0,0,1,.33,4.53" transform="translate(-47.79 -21.15)"/><path class="cls-2" d="M202.7,185.09a19.81,19.81,0,0,1,1.61,1.72" transform="translate(-47.79 -21.15)"/><path class="cls-2" d="M203.66,195.69a5.28,5.28,0,0,1,.38,1.36,14.93,14.93,0,0,1,.06,3.95" transform="translate(-47.79 -21.15)"/><path class="cls-2" d="M201.25,192.26a12,12,0,0,1,1.89,2.39" transform="translate(-47.79 -21.15)"/><path class="cls-2" d="M207.27,183.55a6.66,6.66,0,0,1,.56,1.72" transform="translate(-47.79 -21.15)"/><path class="cls-2" d="M203.87,179.32a14.61,14.61,0,0,1,2.8,3.15" transform="translate(-47.79 -21.15)"/><path class="cls-1" d="M114.87,166.78l3.49,5.22s-.71,9.6,2.45,13.43,11.84,10.66,15.73,11.7,7.53-.95,8-3.21-2-7.34-4.24-11.42-7.7-10.57-11.51-11.43-5.33.5-7.68-.51S113.06,163.07,114.87,166.78Z" transform="translate(-47.79 -21.15)"/><path class="cls-2" d="M138.35,189.66c2.6,3.47,3.39,3.66,3.39,3.66" transform="translate(-47.79 -21.15)"/><path class="cls-2" d="M117.59,168.46s16.44,15.81,20,20.24" transform="translate(-47.79 -21.15)"/><path class="cls-2" d="M124.42,185.31c.82,2,1.35,3,1.35,3" transform="translate(-47.79 -21.15)"/><path class="cls-2" d="M120.55,173.41a11.32,11.32,0,0,1,2.31,2.35c.53,1,.23,5.78,1.11,8.42" transform="translate(-47.79 -21.15)"/><path class="cls-2" d="M128.36,188.58s-.11-5-.26-6.43a7.06,7.06,0,0,0-.53-2.79c-.3-.36-2.27-2.1-2.27-2.1" transform="translate(-47.79 -21.15)"/><path class="cls-2" d="M132.42,184.37s-.39,4.43-.54,6.7a4,4,0,0,0,1.47,3.42" transform="translate(-47.79 -21.15)"/><path class="cls-2" d="M137.18,194.06a6,6,0,0,1-.39-1.26c-.36-1.81-.57-4.46-.57-4.46" transform="translate(-47.79 -21.15)"/><path class="cls-2" d="M138.23,195.75a3.43,3.43,0,0,1-.35-.44" transform="translate(-47.79 -21.15)"/><path class="cls-2" d="M131.44,177.55a6.48,6.48,0,0,1,2.18.34,16.72,16.72,0,0,1,3.89,2.34" transform="translate(-47.79 -21.15)"/><path class="cls-2" d="M127.88,177.91a20.88,20.88,0,0,1,2.34-.32" transform="translate(-47.79 -21.15)"/><path class="cls-2" d="M137.1,183.23a5.72,5.72,0,0,1,1.33.48,14.73,14.73,0,0,1,3.26,2.23" transform="translate(-47.79 -21.15)"/><path class="cls-2" d="M132.91,183.23a11.94,11.94,0,0,1,3-.17" transform="translate(-47.79 -21.15)"/><path class="cls-2" d="M129.26,173.29a6.43,6.43,0,0,1,1.73.53" transform="translate(-47.79 -21.15)"/><path class="cls-2" d="M123.85,173.62a14.71,14.71,0,0,1,4.19-.47" transform="translate(-47.79 -21.15)"/></g><g id="Mushrooms"><path class="cls-3" d="M302.81,392.93a13.34,13.34,0,0,1-.28,5.66c-.85,2.27-3.4,4.82-2,6.23s6.79,2.27,8.21,2.27,4.24-2.55,5.09-6.51a22.63,22.63,0,0,1,2-5.95S305.64,390.67,302.81,392.93Z" transform="translate(-47.79 -21.15)"/><path class="cls-4" d="M302.88,395.69a23.49,23.49,0,0,1,3.67-.5,11.23,11.23,0,0,1,3.49,1l2.66.16,2,.34,2.67-4.66-15-1Z" transform="translate(-47.79 -21.15)"/><path class="cls-3" d="M325.46,373.68s-5.95-7.92-21.52-5.66-14.43,15.57-13.87,19,4,5.38,5.1,5.66,3.11-.28,4.53-.28a5.64,5.64,0,0,1,3.11.56c1.13.57,3.12,0,4,.29s-1.41-.85.85.28a7.2,7.2,0,0,0,5.1.85,7.23,7.23,0,0,1,3.11.28l2.27.85s5.94.57,8.21-3.68S331.4,379.06,325.46,373.68Z" transform="translate(-47.79 -21.15)"/><path class="cls-5" d="M315.83,394.63a18.46,18.46,0,0,0,1.87-4.94" transform="translate(-47.79 -21.15)"/><path class="cls-5" d="M299.39,383.7a12.94,12.94,0,0,0,.16,5" transform="translate(-47.79 -21.15)"/><path class="cls-5" d="M325.86,382.37s1,5.33-2.67,9.16" transform="translate(-47.79 -21.15)"/><path class="cls-5" d="M306.77,393.22a11.17,11.17,0,0,1-1.06-5.19" transform="translate(-47.79 -21.15)"/><path class="cls-3" d="M293.77,322a13.45,13.45,0,0,1,5.61.78c2.18,1,4.5,3.82,6,2.53s2.86-6.56,3-8-2.16-4.46-6-5.66a22.64,22.64,0,0,1-5.75-2.5S291.77,318.93,293.77,322Z" transform="translate(-47.79 -21.15)"/><path class="cls-4" d="M296.52,322.12a23.34,23.34,0,0,1-.17-3.69,11.22,11.22,0,0,1,1.31-3.39l.4-2.64.51-2-4.41-3.07-2.33,14.84Z" transform="translate(-47.79 -21.15)"/><path class="cls-3" d="M276.61,297.68s-8.42,5.22-7.55,20.93,14.22,15.76,17.66,15.5,5.71-3.47,6.09-4.57,0-3.13.12-4.54a5.68,5.68,0,0,1,.84-3.05c.67-1.08.28-3.1.64-3.92s-1,1.33.35-.82a7.14,7.14,0,0,0,1.3-5,7.26,7.26,0,0,1,.56-3.08l1.05-2.18s1.09-5.87-2.94-8.5S282.5,292.24,276.61,297.68Z" transform="translate(-47.79 -21.15)"/><path class="cls-5" d="M296.62,309.13a18.76,18.76,0,0,0-4.75-2.3" transform="translate(-47.79 -21.15)"/><path class="cls-5" d="M284.27,324.54a12.84,12.84,0,0,0,5,.28" transform="translate(-47.79 -21.15)"/><path class="cls-5" d="M285.3,298.06s5.39-.52,8.88,3.46" transform="translate(-47.79 -21.15)"/><path class="cls-5" d="M294.41,318a11.06,11.06,0,0,1-5.26.59" transform="translate(-47.79 -21.15)"/><path class="cls-3" d="M234.13,401.93s1.24,4.77,4.47,7.46,11.15,5.39,21.57,3.42a20.29,20.29,0,0,0,16.54-16.36c.9-6.11-2-14-5.93-15.46S234.13,401.93,234.13,401.93Z" transform="translate(-47.79 -21.15)"/><path class="cls-6" d="M264.74,379s-15.87,4.81-22.86,10.4-9.26,9.82-7.75,12.51,5.48,4.05,6.8,4.05,9.64-.77,9.64-.77a25.54,25.54,0,0,0,4.91-1c1.33-.57,5.48-2.69,5.48-2.69l2.84-1.35,2.08-1,2.64-3.08s4.54-4.24,4.54-6,.75-4.24.56-4.82-1.32-2.89-1.32-2.89A7.71,7.71,0,0,0,264.74,379Z" transform="translate(-47.79 -21.15)"/><path class="cls-3" d="M241.12,383.51a71.6,71.6,0,0,0,4.85,10.6c2.52,4.14,3.78,4.5,5.21,4.5a7.39,7.39,0,0,0,5.76-2.52c1.79-2.16,2.15-3.59,1.79-5.75S255,379.18,255,379.18Z" transform="translate(-47.79 -21.15)"/><path class="cls-3" d="M248.28,377.44s-5.7,1.49-7.19,4,2.48,3.47,5,3.22,8.93-3,8.93-5.45S250,376.7,248.28,377.44Z" transform="translate(-47.79 -21.15)"/><path class="cls-3" d="M248.31,392.67a20.4,20.4,0,0,0,2.87,4.5" transform="translate(-47.79 -21.15)"/><line class="cls-3" x1="207.7" y1="370.27" x2="209.32" y2="373.32"/><line class="cls-3" x1="197.64" y1="366.49" x2="199.07" y2="369.01"/><path class="cls-3" d="M265.88,399.24s1.12,2.06.22,5.66" transform="translate(-47.79 -21.15)"/><line class="cls-3" x1="224.78" y1="370.99" x2="225.32" y2="373.86"/><path class="cls-3" d="M244.53,408.31a6.21,6.21,0,0,0,3.42,2.88" transform="translate(-47.79 -21.15)"/><path class="cls-3" d="M188.58,362.45a14.05,14.05,0,0,0-3.45-6.62c-2.64-2.48-9.28-5.2-18.32-4.05a17.41,17.41,0,0,0-15,13.17c-1.09,5.19,1,12.12,4.28,13.56S188.58,362.45,188.58,362.45Z" transform="translate(-47.79 -21.15)"/><path class="cls-6" d="M161.15,380.51s13.85-3.3,20.14-7.73,8.44-7.94,7.29-10.33-4.49-3.75-5.63-3.82-8.3.16-8.3.16a22.48,22.48,0,0,0-4.26.57c-1.16.43-4.84,2-4.84,2l-2.5,1-1.83.72-2.43,2.5s-4.1,3.4-4.19,4.89-.87,3.59-.74,4.09,1,2.55,1,2.55A6.62,6.62,0,0,0,161.15,380.51Z" transform="translate(-47.79 -21.15)"/><path class="cls-3" d="M181.63,377.89a62.64,62.64,0,0,0-3.61-9.35c-1.94-3.67-3-4.05-4.24-4.12a6.34,6.34,0,0,0-5.06,1.86c-1.65,1.76-2,3-1.84,4.84s2.64,9.76,2.64,9.76Z" transform="translate(-47.79 -21.15)"/><path class="cls-3" d="M175.17,382.71s5-1,6.37-3-1.94-3.1-4.08-3-7.81,2.09-7.94,4.22S173.65,383.26,175.17,382.71Z" transform="translate(-47.79 -21.15)"/><path class="cls-3" d="M175.94,369.65a17.25,17.25,0,0,0-2.23-4" transform="translate(-47.79 -21.15)"/><line class="cls-3" x1="121.92" y1="349.21" x2="120.69" y2="346.51"/><line class="cls-3" x1="130.35" y1="352.97" x2="129.25" y2="350.74"/><path class="cls-3" d="M161.22,363.12a7.12,7.12,0,0,1,.1-4.87" transform="translate(-47.79 -21.15)"/><line class="cls-3" x1="107.32" y1="347.71" x2="107" y2="345.22"/><path class="cls-3" d="M180,356.44a5.37,5.37,0,0,0-2.78-2.64" transform="translate(-47.79 -21.15)"/></g><g id="Tomatoes"><path class="cls-1" d="M269.13,338.49A18.45,18.45,0,0,0,263,339.6c-2.54,1.11-4.92,4.68-4.92,4.68a9.46,9.46,0,0,0-5.23,5.63c-1.27,4.12-1.58,5.86-.71,9.91s2.22,5.55,2.22,5.55.87,6.82,9,10.15,18.63-.64,24.1-3.65,8-12.61,7.45-18.79-5.55-11.26-5.55-11.26-4-4-8.56-5.23S270.56,337.06,269.13,338.49Z" transform="translate(-47.79 -21.15)"/><path class="cls-5" d="M277.14,342.14s3.25-2.22,6.5-1.83" transform="translate(-47.79 -21.15)"/><path class="cls-5" d="M273.81,347.85s5,.08,6.66,2.85" transform="translate(-47.79 -21.15)"/><path class="cls-5" d="M268.74,349.83s-2.78,1.43-2.3,6.9" transform="translate(-47.79 -21.15)"/><path class="cls-5" d="M257.32,350.78s2.22-3.81,8.17-2.77" transform="translate(-47.79 -21.15)"/><path class="cls-7" d="M276.51,349.19s-1.67-.23-2.3.56-.79.4-1.82.55-1.91-.07-1.91.72,1.27.47,0,.79-1.58.08-1.58,1.11-.16,1.59,1,2,3.25-1.74,5-2.38a4.38,4.38,0,0,1,3.17-.08c.88.16,2.07-.63,1.19-2.06A2.9,2.9,0,0,0,276.51,349.19Z" transform="translate(-47.79 -21.15)"/><path class="cls-7" d="M282.3,341.42a5.55,5.55,0,0,0-3.73,1.27c-1.59,1.43-.48,1.75-.24,2.06s-1.51.16-1.66,1.19,0,1.51.79,1.83,3.88,2.22,3.65,1.42-1.27-2.14-.72-2.85,4.84.48,5.47-.16a3.85,3.85,0,0,0,.16-3.88C285.31,341,282.3,341.42,282.3,341.42Z" transform="translate(-47.79 -21.15)"/><path class="cls-7" d="M260.57,344.12s-2.3.4-3.09,1.27-1.27,3-.63,3,4.91-1.9,5.47-2,1.82-.63,1.42-1.27-1.11-1.51-.55-1.58,2.38-1,3.09-.8,1.51,1,2.38-.08,2.3-.95,2.3-.55,1.43-.24,2.46-.95,2-.56,4.12-1.19,5.63-.87,5.15-1.43-4-1.66-6.18-1.27-4.12,1.27-5.08,1.43-3.25.63-5.39,1.11-3.49.4-4.2,1.66A28.63,28.63,0,0,0,260.57,344.12Z" transform="translate(-47.79 -21.15)"/><path class="cls-7" d="M265.73,351.89s-2.94,2.14-3.65,3.33-2.78,2.3-3.25.32a5.45,5.45,0,0,1,.47-3.65s-1.74-.24-.63-1.11,4.12-2.46,4.76-1.74a1.72,1.72,0,0,1,.55,1.26s2.3-1.34,2.38,0S265.73,351.89,265.73,351.89Z" transform="translate(-47.79 -21.15)"/><path class="cls-8" d="M272.07,344.28a5.1,5.1,0,0,1-1.11-2.14c-.24-1.19-.24-5.95-.24-5.95s-1.11,2.78-1.59,3.81a8,8,0,0,0-.47,2.69,4.31,4.31,0,0,1,0,1c-.08.24-.16.56-.79.56a8.65,8.65,0,0,1-2.3-.87l-1.75-.8a18.18,18.18,0,0,1-2-1.11l-.79-1.11-.4-1v-2.22s-1.43,3.57.08,5.08a9.49,9.49,0,0,0,3,2.06l2.14,1,.64,1.19-2.3-.08-1.9.08-1.35-.63-1-1.43s-.8-2-.88-2.22.24,4,2.15,4.76a8.15,8.15,0,0,0,3,.71,3,3,0,0,1,1.19.4,13.13,13.13,0,0,1,1.27.79,1.82,1.82,0,0,0,1.34.71,11.74,11.74,0,0,0,2.86-.16s2.06,0,2.3-1.34.31-1.43.39-2-.23-.79.24-1.58a3.81,3.81,0,0,1,.79-1l1.75-1s.95-.24.39-1.91a8.84,8.84,0,0,0-1-2.3s-1.11-1-1.5-.95a13.1,13.1,0,0,0-1.75.79,1.83,1.83,0,0,1,2.62.64c1,1.66,1.35,2.3.08,3a23.08,23.08,0,0,0-2.3,1.35A5.09,5.09,0,0,0,272.07,344.28Z" transform="translate(-47.79 -21.15)"/><path class="cls-4" d="M269.77,349.67a5.66,5.66,0,0,1-2.38-2.85c-.4-1.67-1.35-7-1.35-7s.08,6,.56,7.61,1.42,1.67,1.5,2.06S269.77,349.67,269.77,349.67Z" transform="translate(-47.79 -21.15)"/><path class="cls-4" d="M271.43,347.69a16.41,16.41,0,0,0-1.19-3.73c-.63-1-1.66-1.43-1.58-.24s.47,2.54.4,3.41-.32,1.43.39,1.59S270.88,348.16,271.43,347.69Z" transform="translate(-47.79 -21.15)"/><path class="cls-1" d="M226.2,357.7a18.58,18.58,0,0,0-4.26-4.62c-2.3-1.54-6.59-1.62-6.59-1.62a9.47,9.47,0,0,0-7.56-1.39c-4.15,1.15-5.79,1.82-8.73,4.73s-3.49,4.86-3.49,4.86-5.28,4.4-3.69,13.08,10.56,15.36,16,18.36,14.93,0,19.85-3.83,6.5-10.74,6.5-10.74,1.28-5.51-.19-10S228.18,358.14,226.2,357.7Z" transform="translate(-47.79 -21.15)"/><path class="cls-5" d="M227.44,366.41s3.62,1.55,5,4.5" transform="translate(-47.79 -21.15)"/><path class="cls-5" d="M220.83,366.68s2.63,4.25,1.18,7.15" transform="translate(-47.79 -21.15)"/><path class="cls-5" d="M216.43,363.47s-2.69-1.58-7.05,1.77" transform="translate(-47.79 -21.15)"/><path class="cls-5" d="M209.49,354.35s4.4-.17,6.73,5.39" transform="translate(-47.79 -21.15)"/><path class="cls-7" d="M221.15,369.67s-.7-1.53-1.71-1.64-.76-.45-1.44-1.23-1-1.65-1.63-1.22.28,1.32-.67.42-.92-1.29-1.79-.74-1.42.72-1.16,1.87,3.22,1.8,4.7,2.93a4.35,4.35,0,0,1,1.77,2.63,1.25,1.25,0,0,0,2.38-.1A2.91,2.91,0,0,0,221.15,369.67Z" transform="translate(-47.79 -21.15)"/><path class="cls-7" d="M230.81,370.37a5.51,5.51,0,0,0-3.07-2.46c-2.06-.56-1.73.54-1.87.91s-.94-1.18-1.9-.76-1.27.81-1.11,1.65.22,4.47.76,3.84,1.12-2.22,2-2.14,2.21,4.34,3.08,4.53a3.88,3.88,0,0,0,3.36-2C232.77,372.7,230.81,370.37,230.81,370.37Z" transform="translate(-47.79 -21.15)"/><path class="cls-7" d="M216.85,353.51s-1.57-1.72-2.73-1.92-3.22.55-2.88,1.08,4.25,3.12,4.61,3.55,1.52,1.19,1.84.52.67-1.75,1-1.32,2.08,1.49,2.33,2.18,0,1.78,1.35,2,2,1.43,1.7,1.64,1,1.07,2.13,1.56,1.53,1.37,3.22,2.83,3.76,4.28,4,3.58-.77-4.3-2.26-5.89-3.28-2.8-3.93-3.51-2.28-2.4-3.83-3.95-2.22-2.73-3.67-2.65A27,27,0,0,0,216.85,353.51Z" transform="translate(-47.79 -21.15)"/><path class="cls-7" d="M213.08,362s-3.39-1.32-4.77-1.28-3.43-1.1-2-2.57a5.43,5.43,0,0,1,3.33-1.56s-.74-1.6.6-1.13,4.29,2.15,4,3.07a1.72,1.72,0,0,1-.77,1.15s2.38,1.21,1.28,2S213.08,362,213.08,362Z" transform="translate(-47.79 -21.15)"/><path class="cls-8" d="M222.9,363.29a5.17,5.17,0,0,1,1.21-2.09c.88-.84,4.89-3.4,4.89-3.4s-2.94.56-4.07.71a7.8,7.8,0,0,0-2.52,1.05,4.44,4.44,0,0,1-.87.55c-.25.07-.56.17-.9-.37a8.67,8.67,0,0,1-.5-2.4s-.13-.95-.27-1.9a20.58,20.58,0,0,1-.13-2.27l.51-1.26.66-.89,1.87-1.2s-3.78.72-4.24,2.8a9.23,9.23,0,0,0-.11,3.65l.35,2.32-.67,1.17-1.17-2-1.09-1.56-.19-1.48.69-1.57s1.25-1.73,1.41-1.93-3.28,2.38-2.86,4.36a8.17,8.17,0,0,0,1,2.93,2.92,2.92,0,0,1,.3,1.21,13.19,13.19,0,0,1,0,1.5,1.83,1.83,0,0,0,.12,1.52,11.86,11.86,0,0,0,1.67,2.32s1.11,1.74,2.37,1.21,1.38-.5,1.89-.73.54-.63,1.46-.65a3.8,3.8,0,0,1,1.3.11l1.74,1s.71.68,1.81-.69a8.87,8.87,0,0,0,1.39-2.1s.27-1.49,0-1.79a13.06,13.06,0,0,0-1.61-1,1.83,1.83,0,0,1,.88,2.55c-.85,1.76-1.22,2.37-2.5,1.69a24,24,0,0,0-2.37-1.22A5.3,5.3,0,0,0,222.9,363.29Z" transform="translate(-47.79 -21.15)"/><path class="cls-4" d="M217.12,364.25a5.65,5.65,0,0,1,1.13-3.54c1.19-1.23,5.16-4.89,5.16-4.89s-5,3.26-6.12,4.56-.64,2.1-.93,2.38S217.12,364.25,217.12,364.25Z" transform="translate(-47.79 -21.15)"/><path class="cls-4" d="M219.69,364.59a16.84,16.84,0,0,0,2.5-3c.53-1.09.31-2.17-.65-1.47a32.55,32.55,0,0,1-2.66,2.17c-.78.4-1.38.5-1.13,1.19S219,364.37,219.69,364.59Z" transform="translate(-47.79 -21.15)"/></g><g id="Pepper"><path class="cls-1" d="M232.45,290.14s-4.92-1.09-7.65.91-3.28,3.1-3.28,3.1a6.72,6.72,0,0,0-6.55,3.64c-2.19,4.19-2.73,8.2-1.82,17.3s6.92,17.12,7.64,18.76,1.1,4.91,4.37,7.28,9.65,4.55,14,3.82a20,20,0,0,0,7.64-3.09,17.65,17.65,0,0,0,6.74-9.11c1.64-5.82,11.11-21.67,8.19-30.59s-8.37-8.92-8.37-8.92-6-4-9.83-4a22.91,22.91,0,0,0-6.92,1.1Z" transform="translate(-47.79 -21.15)"/><path class="cls-9" d="M251.72,302.05s-2.28-4.22-5.85-1-.65,5.85-.33,9.75,4.88-3.25,6.18-1.63S253.32,306.5,251.72,302.05Z" transform="translate(-47.79 -21.15)"/><path class="cls-9" d="M234.49,301.73s-5.2,0-5.2,2.6,2,9.42,4.23,8.77,4.22-5.52,3.9-8.12A4,4,0,0,0,234.49,301.73Z" transform="translate(-47.79 -21.15)"/><path class="cls-4" d="M241.55,298.52s-2.18-4-4.73-10-4.74-9.83-7.83-9.28-2.92,4.19-1.64,5.46,1.27-1.64,2.18-.73,2,3.46,2.92,6.19.18,8.38.18,8.38l6.19,2.37Z" transform="translate(-47.79 -21.15)"/><path class="cls-5" d="M250.79,331.64c-.45,1.16-.81,2.1-1,2.75" transform="translate(-47.79 -21.15)"/><path class="cls-5" d="M256.41,314.16a99.84,99.84,0,0,1-4.25,13.9" transform="translate(-47.79 -21.15)"/><path class="cls-5" d="M241.55,298.52s4.55-2.37,8.56-.91c3.74,1.36,7.63,5.89,6.81,13.59" transform="translate(-47.79 -21.15)"/><path class="cls-5" d="M220.93,324.19c0,2.51,0,4.19,0,4.19" transform="translate(-47.79 -21.15)"/><path class="cls-5" d="M230.26,298.52s-4.37-.36-7.1,4.73c-1.66,3.11-2.11,11.75-2.21,18" transform="translate(-47.79 -21.15)"/><path class="cls-5" d="M223.34,294.51a7.73,7.73,0,0,1,4.56,2" transform="translate(-47.79 -21.15)"/><path class="cls-5" d="M252.11,294a23,23,0,0,0-5.09,2" transform="translate(-47.79 -21.15)"/><path class="cls-5" d="M239.55,303.07s2.37,2-.55,10.75" transform="translate(-47.79 -21.15)"/></g><g id="Beetroot"><path class="cls-10" d="M410.87,124l-8.24,7.74-8.5,8.25-5.5,5.5-2,7.75-1.5,2.75-2,1.74-2.75,4.5-1.49,4s-4.25,14.25-4.75,19,.25,18.75.5,21.75-2.5,15-2.5,15.74,0,13.49,3.75,13,21.74-9.24,21.74-9.24,27.24-28.49,28.74-33a124,124,0,0,0,3.75-12.49c.49-2.75-.25-7,.49-10s5-12.5,5-18-2.25-14.25-2.25-14.25l-4.74-6-3.5-4s-5-3.25-6-3.5S415.12,123.2,410.87,124Z" transform="translate(-47.79 -21.15)"/><path class="cls-11" d="M397,192.1s9-4,10.87-4.35,7-3,7-3,1.34-.67,3.18-1.5,3.68-1,5-2.51a18.85,18.85,0,0,0,2.17-3" transform="translate(-47.79 -21.15)"/><path class="cls-11" d="M427.27,144.78a9.24,9.24,0,0,1-2.34,3,10.19,10.19,0,0,1-3.68,2.17l-10.87,6-1.84,1.34s-6.86-6.86-7.52-8.86-1.51-5.52-1.51-5.52a11,11,0,0,1-.33-1.34" transform="translate(-47.79 -21.15)"/><path class="cls-11" d="M394.83,151.47s5.35,13.87,6,15.71a39.14,39.14,0,0,0,3.34,5.69s8.87-2,9.53-2,11-1.17,11.71-1.67l.67-.5" transform="translate(-47.79 -21.15)"/><polyline class="cls-11" points="340.85 141.02 343.02 151.22 344.19 158.07 345.19 160.75 347.54 166.94"/><polyline class="cls-11" points="343.86 183.32 357.74 180.82 367.77 176.3"/><path class="cls-11" d="M386.47,216.68s6.52-1.5,7.69-2,3.18-1.17,3.18-1.17l3.17-.5,3.18-1.34" transform="translate(-47.79 -21.15)"/><path class="cls-6" d="M414.12,140.19s-16.49,45.73-19,50.48-18.24,40-20.24,42.73-14.77,16.9-14.77,16.9l4.77,3.6,15.74-24.74,16.25-35S414.12,147.44,414.12,140.19Z" transform="translate(-47.79 -21.15)"/><path class="cls-6" d="M357.15,248.52s-11.09-7.39-27.22-2.35-19.49,23.87-17.48,34,7.06,25.54,7.06,29.91a18.74,18.74,0,0,1-4.37,12.44c-3,3.36-9.07,5-5.71,5.37s7.39-2.68,9.41-5.37,4.7-5.72,9.07-5.72,19.83,1.35,32.27-1,21.17-7.4,24.87-17.82,3.36-19.49-.67-25.21-12.32-12-15.54-15-6.45-5.7-6.45-5.7Z" transform="translate(-47.79 -21.15)"/><path class="cls-10" d="M363.73,237.74s5.85-3.27,9.64-3.45,12.56-1.37,13.94-4.3-.34-7.74.17-10.67,5.51-9.64,5.51-9.64-2.07-9.81-2.07-11.53,1-5.33.18-7.23-1.38-1.55-1.38-3.78.69-4.13-.69-6a37,37,0,0,1-3.27-6c-.34-.86,2.76-2.58,1.21-6.54a28.25,28.25,0,0,0-3.62-6.54c-1-1.72-4.13-7.06-4.13-7.06l-4.13-3.44-5.51-4.65-4.13-2.75a10.15,10.15,0,0,1-3.61-1.55c-1.72-1.2-1.89-2.06-4.13-2.58s-6.89,1-6.89,1l-2.92,2.07-3.62,2.06-5,5-3.78,12.57-1.21,9,.52,8.43s8.09,7.57,8.43,8.78,0,3.78-1,6.37-1.38,6.54,0,7.57a6.06,6.06,0,0,1,1.89,2.92s-4.13,2.07-4.3,5.17,1,4.82,1,6-2.58.86-2.24,2.93,2.07,3.44,2.07,4.47-3.44,5.34-2.41,8.95,5.68,3.79,7.23,3.27,12.05-3.1,12.05-3.1Z" transform="translate(-47.79 -21.15)"/><path class="cls-6" d="M360.12,250.3s6.19-18.42,7.91-26.5.87-33.05-1-38.56-11.53-27.53-11.53-27.53l-3.44-7.4s9.29,24.09,11.36,29.43,4,9.12,3.61,15.31.35,22,0,23.93-5.16,18.76-6,20.48-3.83,9.06-3.83,9.06Z" transform="translate(-47.79 -21.15)"/><path class="cls-11" d="M382.14,202.43A46.39,46.39,0,0,1,384.9,198" transform="translate(-47.79 -21.15)"/><path class="cls-11" d="M369.24,219c-.34.51,4.47-4.31,7.23-7.23a28.17,28.17,0,0,0,3.61-5.53" transform="translate(-47.79 -21.15)"/><path class="cls-11" d="M368.55,207.1s5.16-3.78,5.34-7.4,2.41-11.53,3.95-15a48,48,0,0,0,2.24-5.85" transform="translate(-47.79 -21.15)"/><path class="cls-11" d="M354.61,179.54a23.56,23.56,0,0,1-5.68-2.73c-4.47-2.92-3.79-1.89-4.47-2.92" transform="translate(-47.79 -21.15)"/><path class="cls-11" d="M365.11,185.42s-4-2.93-6.37-4.31a10.51,10.51,0,0,0-1.12-.54" transform="translate(-47.79 -21.15)"/><path class="cls-11" d="M366.14,200.73a73.91,73.91,0,0,1-7.23-4.82,23.38,23.38,0,0,1-5-4.81" transform="translate(-47.79 -21.15)"/><path class="cls-11" d="M356.35,210.46a33.91,33.91,0,0,1,2.56,5.07,22.18,22.18,0,0,0,2.93,5.68l2.75,5.34" transform="translate(-47.79 -21.15)"/><path class="cls-11" d="M352.72,204.69s1,1.52,2.25,3.5" transform="translate(-47.79 -21.15)"/><path class="cls-11" d="M365.28,234.64s5.34-7.06,8.26-9.81,6.37-5.34,7.23-6.37" transform="translate(-47.79 -21.15)"/><path class="cls-11" d="M361.15,235.5s-1.89-8.78-4-10.16-8.6-3.27-9.46-6.36" transform="translate(-47.79 -21.15)"/><path class="cls-11" d="M368.38,190.24s3.44-5.17,3.79-9,1.2-8.27,1.2-8.27l.86-4.47.86-2.93" transform="translate(-47.79 -21.15)"/><path class="cls-10" d="M387.31,239.11a39.55,39.55,0,0,1,3.27-11c2.58-5.34,7.75-5,10-6.54s2.76-2.93,4.65-6,5.85-4.64,7.23-6,2.06-7.06,5.85-13.42,16.35-5.85,18.24-5.17,9,1.72,13.25,0,15.67.18,18.25,2.76,6.37,6.54,4.82,9.29a19.13,19.13,0,0,1-3.79,4.65s-1.38,5.68-4,7.91-8.09,7.23-10.32,8.27-10.85,4.47-10.85,4.47l-4.47,2.41-1.55,4-11.7,1.2-6,2.24L416.74,240l-2.24.86-1.2,1.55s0,2.76-.86,3.27-.69.52-1.9,1.38-7.4,2.41-7.4,2.41l-2.58-.17-4,1s-3.09.86-4.3-1.2a34.4,34.4,0,0,0-2.58-3.79Z" transform="translate(-47.79 -21.15)"/><path class="cls-11" d="M420.74,208.25a66.46,66.46,0,0,0,2.88-6.48l2.07-4.13" transform="translate(-47.79 -21.15)"/><path class="cls-11" d="M414.85,221.73a82.73,82.73,0,0,1,3.77-9.82" transform="translate(-47.79 -21.15)"/><path class="cls-11" d="M438.48,199.5a21.18,21.18,0,0,1,5.28-3.24" transform="translate(-47.79 -21.15)"/><path class="cls-11" d="M427.93,215.71s3.44-6.54,4.3-7.92c.76-1.21-.08-2.42,2.87-5.39" transform="translate(-47.79 -21.15)"/><line class="cls-11" x1="404.23" y1="194.39" x2="409.05" y2="194.04"/><path class="cls-11" d="M451.33,196.09s-6,8.09-7.22,9.12-2.76,4-3.27,4.47-1.55,1.72-1.55,1.72,5.5,1.21,6.54,2.24a4,4,0,0,0,1.1.73" transform="translate(-47.79 -21.15)"/><line class="cls-11" x1="377.82" y1="208.76" x2="382.03" y2="209.7"/><path class="cls-11" d="M433.77,225.78a18.15,18.15,0,0,0-2.57-.09c-1.72.17-3.1.17-3.1.17l-4.48-1.72-5.85-1.55s-7,4-7.57,4.3,5.51,1.9,5.51,1.9l6.22.44" transform="translate(-47.79 -21.15)"/><path class="cls-11" d="M440.66,226.55s-1.55-.21-3.41-.42" transform="translate(-47.79 -21.15)"/><path class="cls-11" d="M408.82,239l-2.75.13s-3.61-.17-5-.86-.86-.51-2.58-1.89L396.78,235s3.44-8.26,3.78-8.95a8.8,8.8,0,0,0,.86-1.89" transform="translate(-47.79 -21.15)"/><path class="cls-11" d="M414.5,238.6c-.3.06-1.43.14-2.78.22" transform="translate(-47.79 -21.15)"/><path class="cls-11" d="M410.06,219c-1.27,2.47-2.61,5.06-2.79,5.32a16.71,16.71,0,0,0-1,2.58c-.17.52-.86,2.07-.86,2.07s4.65,3.61,9.47,4.65a26.39,26.39,0,0,0,6.71.86" transform="translate(-47.79 -21.15)"/><path class="cls-11" d="M412.44,214.33l-1.51,2.94" transform="translate(-47.79 -21.15)"/><path class="cls-6" d="M362.39,252.07s24.79-12.89,32.23-18.1,22.06-13.88,28-15.87,25.53-10.66,26.53-10.66,11.9-3,11.9-3-28.26,11.16-36.94,15.37-24.05,14.38-27.52,16.61-17.35,11.4-20.08,12.89-7.68,8.43-7.68,8.43Z" transform="translate(-47.79 -21.15)"/><path class="cls-10" d="M383.35,256.5s13.43-8.95,15.49-11.19,19.62-7.75,27.37-7.57,15,4.3,15,4.3l9.12,1.72s5.34,5.51,5.34,8.26-.18,7.06-.18,7.06a3.79,3.79,0,0,1-3.61,2.23,23,23,0,0,1-6.2-.68s-.51.17-6.88-1.21a49.34,49.34,0,0,0-8.43-1.38l-4.82.52-6.54.69-1.9,1s2.07.69-3.27.86-6.36.69-6.36.69-2.58,5.85-5.51,5.51a61.1,61.1,0,0,1-6.37-1.21l-2.24-1.37a3.56,3.56,0,0,1-.86-2.41c0-1.55.86-1.72.18-3.1a9.46,9.46,0,0,0-2.93-2.75l-9,2.23Z" transform="translate(-47.79 -21.15)"/><path class="cls-6" d="M372.56,261s15.12-6.2,20.08-6.69,24.79-1.24,28.26-1.24,26.65,4.12,26.65,4.12-20.83-2.23-25.47-1.89-20.14.86-25.13,1-7.4.86-12.74,2.07a16.74,16.74,0,0,0-8.6,5.33Z" transform="translate(-47.79 -21.15)"/><path class="cls-11" d="M410.2,253.05a43,43,0,0,1,2.93-3.61c1-1,8.43-5.85,8.43-5.85l4.65-2.93" transform="translate(-47.79 -21.15)"/><path class="cls-11" d="M423.11,253.4l3.27-3.62a48.16,48.16,0,0,0,4.13-3.44c.52-.69.69-1.2,1.38-1.55" transform="translate(-47.79 -21.15)"/><polyline class="cls-11" points="389.77 234.31 393.04 231.22 394.93 229.67 396.65 228.46 398.72 228.12"/><path class="cls-11" d="M395.23,256.5s2.23,1,2.75,1.37.86,1,1.72,1.21a19.53,19.53,0,0,1,1.9.51l2.75.52,1.2-.17,2.76-.17" transform="translate(-47.79 -21.15)"/></g><g id="Onion"><path class="cls-3" d="M280.53,256s0,2.45-3.43,3.35-10.31-1.38-9.06-.84,9.95.48,5.61,1.73-7.24-.45-8.67,1.15l-1.43,1.6a9.36,9.36,0,0,1,6-.08,16.69,16.69,0,0,0,6,1l-5.72,2.59,6,1.27-3,2.36s7.75,1.92,9.63,2.05,5.6-2.07,5.6-2.07l-2.42,6.28a11.77,11.77,0,0,0,5.47-7.81c.84-5.26,1.12-6.56,1.12-6.56l3.36,2.08s-.66-5.85-2.53-6a2.2,2.2,0,0,1-2-2.06Z" transform="translate(-47.79 -21.15)"/><path class="cls-10" d="M280.57,222.55s-15.78,2.63-18.4,12.4,6.56,17.71,10.35,19.06,9.72,2.88,9.72,2.88a72,72,0,0,0,9,1.09c5.63.38,17.51.74,23-4.62s3.32-15.61-.85-20.3-11.27-8.37-11.27-8.37.72-16.16-.86-27.91,8.78-23.42,11.09-25.37,28.89-29.75,35.15-47.72,14.55-39,17-46.94,5.58-17.3,1-15-17,27.39-22.28,35.77-22.68,39-22.68,39,23.53-49.37,27.6-62.09,7.69-19.57,6.53-23.08-5-4.6-6.91-2-20.9,47.2-20.9,47.2S333.22,72,337.24,58.17s2.52-23.38-4.64-8.87S309.06,98.67,308,102.52a61,61,0,0,1-3.06,8s-1.31-13-8.29-4.48-4.95,16.89-6,28.09-.66,28.68-.85,36,1.6,14.2,1.05,16.8-6.17,27.78-7.08,29.49S280.57,222.55,280.57,222.55Z" transform="translate(-47.79 -21.15)"/><path class="cls-12" d="M291.25,258c5.63.38,17.51.74,23-4.62s3.32-15.61-.85-20.3-11.27-8.37-11.27-8.37L295.31,222l-3.88.62s-2.3-1.35-3.57-2.2-7.29,2.16-7.29,2.16-15.78,2.63-18.4,12.4,6.56,17.71,10.35,19.06,9.72,2.88,9.72,2.88A72,72,0,0,0,291.25,258Z" transform="translate(-47.79 -21.15)"/><path class="cls-11" d="M271.24,234.19s-5.6,5.67-3.29,10.28" transform="translate(-47.79 -21.15)"/><path class="cls-11" d="M271.17,248.73s.41,3.74,9.36,7.25" transform="translate(-47.79 -21.15)"/><path class="cls-11" d="M305.11,238.91s2.58,4.67-1.76,10.89-12.23,6.25-12.23,6.25" transform="translate(-47.79 -21.15)"/><path class="cls-11" d="M314,243.81s1.36,5.24-2.47,9.09" transform="translate(-47.79 -21.15)"/><path class="cls-13" d="M365.57,61.74c-4.57,2.3-17,27.39-22.28,35.77s-22.68,39-22.68,39,23.53-49.37,27.6-62.09,7.69-19.57,6.53-23.08-5-4.6-6.91-2-20.9,47.2-20.9,47.2S333.22,72,337.24,58.17s2.52-23.38-4.64-8.87S309.06,98.67,308,102.51a60.76,60.76,0,0,1-3.06,8s-1.31-13-8.29-4.48-4.95,16.89-6,28.09-.66,28.68-.85,36,1.6,14.2,1.05,16.8-6.17,27.78-7.08,29.49-3.2,6.11-3.2,6.11,5.64-2.51,7.29-2.16,2.47,2,3.57,2.2,2.84-1.13,3.88-.62-.88.1,1.05.51a40.35,40.35,0,0,1,5.77,2.21s.72-16.16-.86-27.91,8.78-23.42,11.09-25.37,28.89-29.75,35.15-47.72,14.55-39,17-46.94S370.13,59.45,365.57,61.74Z" transform="translate(-47.79 -21.15)"/><path class="cls-11" d="M365.57,61.74c-4.57,2.3-17,27.39-22.28,35.77s-22.68,39-22.68,39,23.53-49.37,27.6-62.09,7.69-19.57,6.53-23.08-5-4.6-6.91-2-20.9,47.2-20.9,47.2S333.22,72,337.24,58.17s2.52-23.38-4.64-8.87S309.06,98.67,308,102.51a60.76,60.76,0,0,1-3.06,8s-1.31-13-8.29-4.48-4.95,16.89-6,28.09-.66,28.68-.85,36,1.6,14.2,1.05,16.8-6.17,27.78-7.08,29.49-3.2,6.11-3.2,6.11,5.64-2.51,7.29-2.16,2.47,2,3.57,2.2,2.84-1.13,3.88-.62-.88.1,1.05.51a40.35,40.35,0,0,1,5.77,2.21s.72-16.16-.86-27.91,8.78-23.42,11.09-25.37,28.89-29.75,35.15-47.72,14.55-39,17-46.94S370.13,59.45,365.57,61.74Z" transform="translate(-47.79 -21.15)"/><path class="cls-10" d="M296.62,106.08c-7,8.57-4.95,16.89-6,28.09s-.66,28.68-.85,36c-.18,6.92,1.42,13.48,1.11,16.36l2.15-1,.55-2.6s1.34,1.37,2.82-.49,1.44-3,1.44-3,1.44,2.21,2.55.82S300.18,169.9,299,155s5.91-44.42,5.91-44.42S303.6,97.51,296.62,106.08Z" transform="translate(-47.79 -21.15)"/><path class="cls-10" d="M354.74,51.29c-1.16-3.51-5-4.6-6.91-2s-20.9,47.2-20.9,47.2S333.22,72,337.24,58.17s2.52-23.38-4.64-8.87S309.06,98.67,308,102.51a60.76,60.76,0,0,1-3.06,8s-1.69,14.32-4.16,24.67-2.13,21.57-.55,24.35l4.18-.47,3.29-5.28,7.77-21.19s2.29,4.57,3.07,4.73,2.1-.91,2.1-.91,23.53-49.37,27.6-62.09S355.9,54.8,354.74,51.29Z" transform="translate(-47.79 -21.15)"/><path class="cls-10" d="M365.57,61.74c-4.57,2.3-17,27.39-22.28,35.77s-22.68,39-22.68,39-4.67,10.43-6,14-3,7.52-1.81,7.22,8.7-7.66,8.7-7.66-10.26,16.3-11.07,18.85a10.56,10.56,0,0,0-.62,5.2,24.83,24.83,0,0,1,2.51-2.62c2.32-2,28.89-29.75,35.15-47.72s14.55-39,17-46.94S370.13,59.45,365.57,61.74Z" transform="translate(-47.79 -21.15)"/><line class="cls-11" x1="279.13" y1="75.34" x2="268.97" y2="109.06"/><path class="cls-11" d="M324.71,146.57s23.12-32,32.58-51" transform="translate(-47.79 -21.15)"/><path class="cls-11" d="M281.74,224.7a20.67,20.67,0,0,0,3.52-8.32" transform="translate(-47.79 -21.15)"/><path class="cls-11" d="M289.09,211.86s-1.15,9.27-2.91,12.43" transform="translate(-47.79 -21.15)"/><line class="cls-11" x1="246.57" y1="181.23" x2="241.76" y2="203.86"/><path class="cls-11" d="M297.61,206.33s-2.28,15.82-1.63,17.87" transform="translate(-47.79 -21.15)"/><path class="cls-11" d="M299.72,216.83s-.84,5.26.28,7.67" transform="translate(-47.79 -21.15)"/></g><g id="Radish"><path class="cls-6" d="M247,68.77s6.42-9.41,9.64-5.28a28.33,28.33,0,0,1,4.13,6.66s8.49-12.85,9.17-6.66S264.7,75,264,78.18s4.59,4.59,3,6.65-5.74,2.3-7.11,4.82-15.15,20.88-16.52,25.47,2.06,7.35,1.6,10.79-3,1.83-3.44,4.36,1.38,4.59-.46,8a36.8,36.8,0,0,0-3,6.19c-.92,2.53-1.84,2.07-.23,5.74s2.29,3.9.69,6.88-1.84,7.12-2.3,8.26,1.61,2.53.23,3.22-2.75-33.05-2.75-33.05l.46-35.56Z" transform="translate(-47.79 -21.15)"/><path class="cls-10" d="M239.46,187.17s3-9.64,3.67-15.83,4.36-19.05,6.65-27.77,23-28.91,29.6-37.63,19.28-14,18.36-16.06-4.36.69-6.2,1.84-3.9-.46-4.82-2.07.23-2.52-4.13-2.06a25.72,25.72,0,0,0-8.49,2.75s-1.37,2.3-2.06.69-3.44-1.38-3.44-1.38l-3.9,1.61-.92,1.61-1.15,2.06s-.69-5.05-2.75-5.28-1.15,2.53-2.07-.23-1.83-2.06-8.72,2.76-13.76,9.63-13.53,14.68,2.75,7.12,2.75,7.12-3.21,2.29-.69,4.13,5.74,6.19,5.74,6.19l1.14,5s.23,8.72.46,10.78-.69,14.92-.69,14.92-6.88,27.76-7.11,29.37S237.39,189.7,239.46,187.17Z" transform="translate(-47.79 -21.15)"/><path class="cls-11" d="M259.79,101.52c-1.63,3.37-4,8.53-6.57,14.75-4.59,11.24-5.27,19.27-5.27,21.8s-.23,6.19-.23,6.19a84.61,84.61,0,0,0,3.21-11c.92-4.82,1.38-9.41,1.38-9.41" transform="translate(-47.79 -21.15)"/><path class="cls-11" d="M261.94,97.22s-.42.81-1.16,2.28" transform="translate(-47.79 -21.15)"/><path class="cls-10" d="M234.87,186.94a13.91,13.91,0,0,1-6.66-10.32c-.91-7.35-5.27-28-11.24-38.55s-4.36-11.47-11.7-15.83-6.89-.92-13.54-4.59-14-9.87-14.69-14.69.69-3.67.69-6.19-3.21-8-3.21-8a17.5,17.5,0,0,0,2.75-3.45c.46-1.14-2.06-7.11,1.15-9.4s3.67.45,5.74,5.27S195.63,92.87,197,90.8s-2.53-6.65,5.27-3.44,12.62,4.59,12.17,7.8,1.6,9.64,1.6,9.64l7.8,4.82-.23,12.16a9,9,0,0,1-1.83,2.75c-.92.69-2.76,1.84-2.76,2.75v6s6-3.9,6.66-1.38,2.75,7.57,1.61,8.26a14.78,14.78,0,0,1-4.36,1.61s4.58,20.65,5.27,21.8,1.84,13.08,2.53,14.68S234.87,185.79,234.87,186.94Z" transform="translate(-47.79 -21.15)"/><path class="cls-11" d="M195.52,109.83c.48.39,1,.78,1.49,1.16,10.78,8,17.67,16.52,19.5,21.8" transform="translate(-47.79 -21.15)"/><path class="cls-11" d="M182.78,92a41.25,41.25,0,0,0,9.43,14.84" transform="translate(-47.79 -21.15)"/><path class="cls-10" d="M234,185.11s-3.67-17.44-5.28-28.69-4.36-27.07-12.16-45S209.17,92,203.89,82.77,190.35,64.87,192,62.58s8.49,5.73,8.72,2.52-10.33-19.5-4.13-22.71,12.39,12.16,13.54,15.37,3.9-.23,6.19,1.15S220,67.17,219,72.67s2.53,11.25,3.68,17.44.23,17.44,1.14,19.51,6.2,3.21,6.66,10.32-.23,8.26-.23,10.56.46,6,.46,6L228.9,144l3.9,25.47s2.53,8.49,3.44,11.71S235.1,187.63,234,185.11Z" transform="translate(-47.79 -21.15)"/><path class="cls-11" d="M203.69,62.05c3.17,8.55,7.55,20.73,9.61,28.29,3.44,12.62,4.13,17,4.13,17" transform="translate(-47.79 -21.15)"/><path class="cls-11" d="M200,52.25s1.22,3.14,2.95,7.77" transform="translate(-47.79 -21.15)"/><path class="cls-10" d="M234.87,186.94s-2.3-7.57-2.3-24.55.92-29.37-3-39.92-9-12.85-16.52-22,.92-14.69.69-18.13-2.76-4.59-5-12.16,9.87-8.26,10.78-8-.68-6.66-.68-7.8,8,3.21,8.26,3.9S208.94,45.83,212.15,39.4s16.06-8.49,18.59-12.16,11-.69,13.76-1.83,6.66-5.51,7.12-3-3,9.87-5.28,16.75a85.37,85.37,0,0,0-3.21,14.23s3.9-7.11,6.88-2.75,4.59,10.09,2.07,13.3-3.45,8.26-3.45,8.26a28.22,28.22,0,0,1,1.38,6c.23,2.75,1.15,3.67,0,5s-1.83,3.44-2.52,4.36-2.3,3.44-2.3,3.44-7.11,20.88-6.88,23-.92,1.14-2.07,5.73-.91,24.78-.68,28.45.45,17,.91,20.43a130.54,130.54,0,0,1,.69,15.83C236.93,186.71,236.47,189.92,234.87,186.94Z" transform="translate(-47.79 -21.15)"/><path class="cls-11" d="M235.33,104.38c-1,6.81-1.71,12.69-1.61,15.79" transform="translate(-47.79 -21.15)"/><path class="cls-11" d="M236,47.89s4.59,16.75,3,30.75c-.75,6.5-2,14.44-3.08,21.77" transform="translate(-47.79 -21.15)"/><path class="cls-6" d="M234.87,186.94a13.51,13.51,0,0,0-2.29,3c-1,1.79-7.15,4.17-8.34,12.71s5.76,15.9,9.34,18.08,3.57,1.39,3.57,3.18-.39,11.32.4,15.1a62.21,62.21,0,0,1,.79,9.93l-.79,17.88s-1.59,7.55-1,8.54,1.78-2.78,2-5.36,2.39-25.23,2.39-25.23l-2-7.55s4.37-13.9,5.36-14.7a30.54,30.54,0,0,0,9.94-11.32c3.57-7.16,3.18-14.9-.6-18.48s-9.25-3.2-11.72-4.37S237.15,184,234.87,186.94Z" transform="translate(-47.79 -21.15)"/><path class="cls-12" d="M238.94,237.21s2-6.29,3.57-10.65c-.34-.28-.7-.59-1-.87-.79-.8-2-.2-3,1.79-.54,1.08-1.08.69-1.46.11-.06,3.64-.07,8.85.47,11.41a62.21,62.21,0,0,1,.79,9.93l-.79,17.88s-1.59,7.55-1,8.54,1.78-2.78,2-5.36,2.39-25.23,2.39-25.23Z" transform="translate(-47.79 -21.15)"/></g><g id="Carrot"><path class="cls-10" d="M154.36,164.28s-5.3-25.52-6.06-28.86,7.19-.9,9.33-5,.6-9.45-1.33-9-2.87,8.38-5,5.92,1.94-12.07,4.67-14.06,13.24-1.46,16.31-2.75,3.67-9,0-9.8-7.22,4.4-10.65,6.73-5.23-2.67-7.25-1.9-2.65,2.61-3.8,4.26-1.45-4.74-1.45-4.74,4.53-8.1.07-8.32-4.66,2.5-4.46-.21,2.13-4.1,1.63-6.9-.06-2.81-1.71-4,2.6-7.59,2.2-12-3.26-7.56-6.38-11.27-2.7-1.51-4.83-8.09-4.6-15.19-7.25-13-4.75,3.2-1.77,12.85S129,65.74,129,65.74s-3,2.34-2,5.76,4,11.33,5.57,13.18-4.33,4.52-4.18,7.93,3.12,4.15,4.68,6,2.41,4,2.23,5.45a8.56,8.56,0,0,0,1,4.29c.51,1.06-3.65-3-3.26,1.81a15.93,15.93,0,0,0,3.7,8.44l1.29,2.64s-.47,3.5,1.52,5.79,6.33,7.15,6.33,7.15l6.4,29.12-.8,1.48Z" transform="translate(-47.79 -21.15)"/><path class="cls-10" d="M102.39,109.29s-9.28.18-13.49.49-8.48-.86-8.82-2.44S83,104.83,83,104.83s.61.79-3.41-.29-7.35-.77-5.67-2.24,6.15-2.14,8.51-1.77,2.79.82,5.07,1-1.11-4-6.71-3.91-8.61,3.34-12-.89.48-4.37,2.84-4,3.67.38.72-2.54S71.07,85.82,74,87.42s4,3.71,6.08,5.74-9.71-11.82-5.44-9.33,5,3.9,6.78,6.28S86.48,96.8,88,98s2.35,2.56,2.87,2.3.48-4.81-2.44-10.79-6.32-8-2.48-7.28,7.92,5.49,8.43,7,1.76-.43,3.93,1.34,2.69,2.83,2.23,5.45-1.42,2.44-.92,4.81a8.67,8.67,0,0,0,1.12,3.16s2.88.11,3,.9.85,2.63,3.28,5.81,8.24,8.39,8.69,7.08,1.78-2.61-1.58-9.47-4.9-10.9-2.88-10.8,1.84-.24,1.34-3.92,2.4-3.14,4.18,3.62,3.24,9.75,2.77,13.25.66,4.9-.24,7.09a10.91,10.91,0,0,1-1.6,3s11.55,11.13,13.46,13.25,15.91,22.72,15.91,22.72,4.22,7.74,4.48,8.27-1.85,2-1.85,2-3.52-8.52-6.11-12.49-14.78-22.19-20.87-27-7.73-6.46-7.73-6.46,1.75,0-12.8,1.46-23.1-.9-24-2.66,8-7.63,12.73-4.7,6.09,4.43,6.54,3.56-4.43-5,.55-2.89,5.93,2.77,7,3.13-1.32.86,1,.36a18.48,18.48,0,0,1,5.69,0Z" transform="translate(-47.79 -21.15)"/><path class="cls-10" d="M135,141.7a57.18,57.18,0,0,0-11.88-3.34c-5.86-.84-15.42,1-19.44.79s-3.4-1.6-1.21-2.46,5.43,0,5.18-1.44-6.37-1.9-1.89-3.87,7.82-3.17,9.28-.18,1.28,4,2.77,4.31,2.26,2,2.88.55-4.32-6.17-.13-5.6,5.42,1.71,5.74,4.6,2,3.17,2,3.17l5.68,1.36A2.2,2.2,0,0,1,135,141.7Z" transform="translate(-47.79 -21.15)"/><path class="cls-10" d="M88,47.7s-6.49-8.37-3.75-1.43S92,56,94.33,59s3.47,3.53,3.55,5-7.92-5.06-6.22-.23,2.66,6.33,5.62,8.81,6.79,5,6.52,5.75-10.91-4-7.28.72,6.34,5.83,9.67,6.39a30.38,30.38,0,0,1,6.37,1.89,1.28,1.28,0,0,1,2.19.46c.86,1.76,7.43,11.62,6.72,12S113.2,94,105.61,91.8s-17.55-6.45-15.33.75,14.63,9.4,19.91,15.32-.13,5.07,4.49,7.39,7.74-3.35,9.2.08.38,5.69,2.4,5.8,3.25-1.81,4.47-.66,1.8,3.69,2.84,4.92a125,125,0,0,1,7,12.06c1.46,3,11,27.32,11,27.32l2.81-.5s-9.72-20.75-11.08-24.43-4.21-9.93-2.07-14,16-14,19.5-17.17,5.34-10.9,1.2-7.78-6.72,7.21-8.39,8.25,4.21-10.56-1-10-4.23,3.37-4.89,8.27,1.28,3.95-1,6.38-2.52-2-4.29.58-2.31,3.74-2.33,5.93a11,11,0,0,1-.47,3.94,43.73,43.73,0,0,0-.75,5.16s-12-24.88-12.21-25.41,3.37-14.5,6-19.3,6-9.23,5-13.79-1.86-8.24-4.27-2.92-.86,8-2.54,10-3.17-7.39-6-1.63-1.22,8.66-.89,11.11-5.56-4.25-5.41-2.15,3,6.59,4.3,9.23a21.54,21.54,0,0,1,1.61,6.41L116,85.85s7.62-10.7,5.93-18.16-6.28-12-6-8.19,1,10.16-1,9.18S112.08,52,109.1,52.61s-2.26,7.86-3.56,6.54-.83-5.7-3.43-8.79-3.76,2-5,1.36c-3-1.6-4.85-6.35-5.55-6.44S88,47.7,88,47.7Z" transform="translate(-47.79 -21.15)"/><path class="cls-3" d="M158.83,163.62s-8.75-.51-12.74,5.58.12,16.28,3.92,22.27,10.09,17.95,15.16,28.32a177.39,177.39,0,0,0,10.7,18.74s6.47,10.57,11.84,17.53,12.66,14.29,13.88,15,3.66,1.7,3.68-.49-4.16-24.55-6.66-29.65-9.93-26.53-13.37-33.12S174,183.45,174,183.45s-3.93-11.15-7.58-14.6A31.1,31.1,0,0,0,158.83,163.62Z" transform="translate(-47.79 -21.15)"/><path class="cls-11" d="M154.61,195.54a25.16,25.16,0,0,1,6.79-4.85" transform="translate(-47.79 -21.15)"/><path class="cls-11" d="M181.11,199.79a13.5,13.5,0,0,0-7.81,1.86" transform="translate(-47.79 -21.15)"/><path class="cls-11" d="M180,231.33a16.27,16.27,0,0,1,4.14-1.65" transform="translate(-47.79 -21.15)"/><path class="cls-11" d="M174.49,236.16a17.88,17.88,0,0,1,4.28-4" transform="translate(-47.79 -21.15)"/><path class="cls-11" d="M198.61,240.92s-4.81-.48-8.33,1.24" transform="translate(-47.79 -21.15)"/><path class="cls-11" d="M152.2,177.25c.85-.38,1.82-.77,2.93-1.14" transform="translate(-47.79 -21.15)"/><path class="cls-11" d="M146.23,182.42s.05-1.43,2.56-3.25" transform="translate(-47.79 -21.15)"/><path class="cls-11" d="M195.7,259.22a13.31,13.31,0,0,1,2.94-1.75" transform="translate(-47.79 -21.15)"/><path class="cls-11" d="M193.34,262.67a4.5,4.5,0,0,1,.9-1.94" transform="translate(-47.79 -21.15)"/></g><g id="Lettuce"><path class="cls-10" d="M95.92,226.38s0-5.19-7.13-5.45-10.29,1.9-10.9,5.09,2.58,10.2,2.58,10.2-1.16,4.31-1.46,5.9,1,6.26,1,6.26l5.13,6.06s4.58,3.19,4.86,4,.71,2.67.71,2.67l1.72,2.54,1.92,1.47,4.18,4.11s-14.94,2-21.33.78-8.94-2.26-13.61-.95A35.84,35.84,0,0,0,54.06,274s-6.69.38-5,8.1,3.06,10,3.83,10.55,5.81,6,5.81,6S65,301.22,67,301.81a31.93,31.93,0,0,1,4.39,1.84s2.33.55,5.59,4.26a47.9,47.9,0,0,0,9.47,8.76,71.59,71.59,0,0,0,12.44,6.46c3.09,1.14,5.08,1.74,6,1.26s4.79.92,4.79.92,14.86,7.69,18.82,8.88,10,.91,10,.91,1.32-.52,3.19,1.83,3.06,4.77,6.35,4.85,7.12.26,8.42,1,3.14,1.48,3.14,1.48l4.16,1.34,6.19,1.07s4.88,1.6,6.24,1.42,5.81.77,5.81.77l3.82.18s4.17.14,5.29-.53l1.12-.67s-.21-4.12-.61-7.18,1.95-7.35,2.69-8.31a7.46,7.46,0,0,1,1.65-1.56s3.09-3.05,2.51-3.49-13.29-15.33-23.13-25.6S133.21,261,124.36,254.2,95.92,226.38,95.92,226.38Z" transform="translate(-47.79 -21.15)"/><path class="cls-14" d="M77.89,226c-.61,3.2,2.58,10.2,2.58,10.2s-1.16,4.31-1.46,5.9,1,6.26,1,6.26l5.13,6.06s4.58,3.19,4.86,4,.7,2.67.7,2.67l1.73,2.54,1.92,1.47,4.18,4.11s8.86,1.58,11.95,2.72A46.64,46.64,0,0,1,121,277.82c2.89,2.2,11.32,8.34,11.32,8.34l4.57,3.19,9.82,7.5s8.59,1.59,13.65,5.46.19-.26-2.44-4.68-6-7.38-3.78-6.09,9.6,3.72,9.6,3.72S149.5,284.43,148,283.72s-44.33-32.26-46.39-33.32S93,236.06,92.53,233.82c-.43-2,1.6-9.13,2-10.65-1-1.12-2.74-2.13-5.78-2.24C81.67,220.68,78.5,222.83,77.89,226Z" transform="translate(-47.79 -21.15)"/><path class="cls-11" d="M95.92,226.38s0-5.19-7.13-5.45-10.29,1.9-10.9,5.09,2.58,10.2,2.58,10.2-1.16,4.31-1.46,5.9,1,6.26,1,6.26l5.13,6.06s4.58,3.19,4.86,4,.71,2.67.71,2.67l1.72,2.54,1.92,1.47,4.18,4.11s-14.94,2-21.33.78-8.94-2.26-13.61-.95A35.84,35.84,0,0,0,54.06,274s-6.69.38-5,8.1,3.06,10,3.83,10.55,5.81,6,5.81,6S65,301.22,67,301.81a31.93,31.93,0,0,1,4.39,1.84s2.33.55,5.59,4.26a47.9,47.9,0,0,0,9.47,8.76,71.59,71.59,0,0,0,12.44,6.46c3.09,1.14,5.08,1.74,6,1.26s4.79.92,4.79.92,14.86,7.69,18.82,8.88,10,.91,10,.91,1.32-.52,3.19,1.83,3.06,4.77,6.35,4.85,7.12.26,8.42,1,3.14,1.48,3.14,1.48l4.16,1.34,6.19,1.07s4.88,1.6,6.24,1.42,5.81.77,5.81.77l3.82.18s4.17.14,5.29-.53l1.12-.67s-.21-4.12-.61-7.18,1.95-7.35,2.69-8.31a7.46,7.46,0,0,1,1.65-1.56s3.09-3.05,2.51-3.49-13.29-15.33-23.13-25.6S133.21,261,124.36,254.2,95.92,226.38,95.92,226.38Z" transform="translate(-47.79 -21.15)"/><path class="cls-15" d="M191.48,320.41s-19.3-15.05-30.13-23.62S123.68,271.06,115,264.45s-31.7-37.94-31.7-37.94,7.34,13.54,10.16,17.83,8.91,12.29,8.91,12.29l8.1,10.15,3.6,3.67c1.2,1.22,18.21,12.08,21.44,14.24s22.44,16.53,29.4,23.37,15.81,14.82,15.81,14.82l3.51,4.2s-11.77-6.55-9.57-3a23.07,23.07,0,0,0,4.55,5.62c.58.44-4.91,2-3.9,3.11s2.12,1.62,2.83,3.08-1.24,3.62-1.24,3.62a18.42,18.42,0,0,0-3.6,1.52c-.78.62-.67-1.12-.78.62l-.12,1.75s3.67,1.58,4.78,2.12,9.17,4,13.81-.12c0,0-1.07-9.58,1.33-13.31l2.41-3.73" transform="translate(-47.79 -21.15)"/><path class="cls-10" d="M195.93,330.74s-1.77-1-6.1-6.26-14.53-20.39-23-26.88L134.64,273c-2.83-2.17-4.66-2.29-9.47-5.64s-18.27-11.71-23.52-17-7.82-13.66-9.12-16.58,2.13-11.18,3-12.75,5.51-6.36,6.46-10.12,4.58-6.43,7.4-8.44,7.23-5.69,9.24-2.87,2,4.45,3.82,5.48,9.35,2,9.35,2,2.91-1.3,5.29.2,7.75,4.95,7.75,4.95l6.55,6.93,3.55,7.52,4,4s.86,1,3.18,3.39A41.53,41.53,0,0,0,165.9,238c1,.77,3.12,4.31,3.12,4.31a25.7,25.7,0,0,1,1.84,4.29c.4,1.58-.79-1.89.4,1.58a53.21,53.21,0,0,0,4.2,8.33l3.32,4.46,2.18,6.79,1.44,4,4.63,6.09,3.47,5.53,1.81,2.67s5.58,13.23,6.18,15,1.68,5.76,1.68,5.76l1.14,3.12.07,3.26s.67,5,1,7.49,2.48,6.38,2.48,6.38A13.79,13.79,0,0,0,195.93,330.74Z" transform="translate(-47.79 -21.15)"/><path class="cls-11" d="M154.42,278.34c.72.63,1.44,1.3,1.44,1.3l3.59,2.42" transform="translate(-47.79 -21.15)"/><path class="cls-11" d="M128.72,269.47s3.89,3.29,5.92,3.57,6.41.41,6.41.41a10.89,10.89,0,0,1,4.18,0,41.58,41.58,0,0,1,4.77,1.73l1.91,1.24" transform="translate(-47.79 -21.15)"/><path class="cls-11" d="M100,220.65s8.59,1.76,9.8,2.69,11.65,7,11.65,7l3.88,4.57,2.27,2.05,2.07,1.9,4.66,2.28,2.63,2,1.77,1" transform="translate(-47.79 -21.15)"/><path class="cls-15" d="M183.51,294.23c-3.32-4.46-25-31.88-30-36.66,0,0-13.59-17.43-14.4-18s-21.86-26.3-21.86-26.3,5.47,9.62,9.74,15.76c.67,1,1.56,2.14,2.61,3.45,5.62,7.06,15.63,18.15,18.6,22,3.52,4.61,18.75,20.73,21.26,24.57s8.45,11.58,8.45,11.58l3.62,5.32s5.09,5.5,5.22,9.11.32,3.77.91,5.51.24,1.78.64,3.36.74,2.81,1.08,4,.57,4.29,1.68,5.77,1.14,3.12,2.81,4.71a13.79,13.79,0,0,1,8.94-3.74s-.74-1.35-1.43-3c-1.73-3.47-4.82-9.19-7.95-12.85C188.72,303.34,186.83,298.69,183.51,294.23Z" transform="translate(-47.79 -21.15)"/><path class="cls-11" d="M141.19,219.51c.46,1.9,1,4,1.56,5.59,1.49,4.34,1.33,4.54.9,8.05a46.78,46.78,0,0,0,0,8.35l.73,3.62" transform="translate(-47.79 -21.15)"/><path class="cls-11" d="M140,213.67s.27,1.46.7,3.45" transform="translate(-47.79 -21.15)"/><path class="cls-11" d="M166.31,271.92a41.17,41.17,0,0,1,0-6.74c.31-2.81,1.07-6.19,1.07-6.19l.67-5.28-.53-5.29-.36-2.71" transform="translate(-47.79 -21.15)"/><path class="cls-11" d="M156.83,239.62c0,.53,0,1,0,1.59-.1,5.71-.31,8-.31,8l.35,3.93-1.3,6.75" transform="translate(-47.79 -21.15)"/><path class="cls-11" d="M155.2,230.19a38.85,38.85,0,0,1,1.41,6.73" transform="translate(-47.79 -21.15)"/><path class="cls-11" d="M144.13,263.3c2.33.45,5.24.86,5.24.86s4.5,1.3,5.27,1.89a11.87,11.87,0,0,0,2.75,1.18" transform="translate(-47.79 -21.15)"/><path class="cls-11" d="M120.45,263.71s6.28,1.75,8.35,3,3.81,2.6,6.93.11c2.34-1.87,3.76-3.42,5.3-3.84" transform="translate(-47.79 -21.15)"/><path class="cls-11" d="M120.57,244.26a29,29,0,0,1,5.88,3.61c5.29,4.65,8,7.92,9.72,8a23.91,23.91,0,0,0,4.6-.44l3,1.67,3.34.42" transform="translate(-47.79 -21.15)"/><path class="cls-11" d="M103.09,237.34s7.66,2.49,14.46,5.51" transform="translate(-47.79 -21.15)"/><path class="cls-11" d="M178.43,277.21a6.35,6.35,0,0,1,.36,2.72,13.32,13.32,0,0,0,.55,4.07l.61,2" transform="translate(-47.79 -21.15)"/><path class="cls-11" d="M176.1,261.1s1.52,3.6,1.35,6.21a46,46,0,0,0,.05,5.53s.27,1.15.52,2.3" transform="translate(-47.79 -21.15)"/><path class="cls-11" d="M109.58,209.68s6.62,8.1,7.57,10a29.61,29.61,0,0,0,4.21,5.66c1,1.07,3,2.88,3,2.88s5,1.79,4.71,3" transform="translate(-47.79 -21.15)"/><path class="cls-11" d="M122.85,312.35c2.13.71,4.06,1.57,4.31,2.84.52,2.52,0,5.52,2.86,5.84a15.2,15.2,0,0,0,7.23-1.49c.64-.43,6.56-1.4,7.33-.81s-1.43,2.27,1.9,3.89,8.82,0,8.82,0,5.17,2.42,5.73,4.08,4.62,3.53,4.62,3.53l5.83-1.65" transform="translate(-47.79 -21.15)"/><path class="cls-11" d="M73.49,281.82A5.71,5.71,0,0,1,75,284.15c1.36,5-2,12.19,6.92,16.87s19-2.88,21.49-2.18-5.09,5.87,1.27,9.51,10.66.82,12.73,2.1a7.93,7.93,0,0,0,1.48.64" transform="translate(-47.79 -21.15)"/><path class="cls-11" d="M59.83,274.42a55.5,55.5,0,0,1,11.35,5.48" transform="translate(-47.79 -21.15)"/><path class="cls-11" d="M138.8,329.34a7.17,7.17,0,0,0,4-.35,7.76,7.76,0,0,1,4.76-.64s3.18,1.82,3.65,2.8.23,1.69,2.46,1.57-1-2,2.23-.13a46.05,46.05,0,0,1,4.53,2.85,56.24,56.24,0,0,0,4,4.3l3.09,2.36" transform="translate(-47.79 -21.15)"/><path class="cls-11" d="M57.51,295.82A95.92,95.92,0,0,1,67.87,297c3.38.76,8,1.87,11.81,6.89s13.88,13.35,15.82,13.61,2.71-5.55,5.76-4.74,7.42,5.05,8.47,6.47,7.19-1.83,7.19-1.83a15,15,0,0,1,3.75,3.48,9.18,9.18,0,0,0,2.79,2.73,8.55,8.55,0,0,1,7.36.75c1.19.8,2.26,1.59,3.14,2.26" transform="translate(-47.79 -21.15)"/><path class="cls-11" d="M107.3,286.11c1-.4,2.16-.8,3.36-1.21" transform="translate(-47.79 -21.15)"/><path class="cls-11" d="M93.37,295.17s.83-3.21,9.8-7.33" transform="translate(-47.79 -21.15)"/><path class="cls-11" d="M129.7,294.56c9-1.71,11.61-.28,11.61-.28" transform="translate(-47.79 -21.15)"/><path class="cls-11" d="M112.17,301.29a50.57,50.57,0,0,1,13.37-5.77" transform="translate(-47.79 -21.15)"/><path class="cls-11" d="M146.67,307.21c3.15-1.06,6.08-1.71,7.62-1.19,4.34,1.5,5.5,2.38,5.5,2.38" transform="translate(-47.79 -21.15)"/><path class="cls-11" d="M134.41,312.49s4.45-2.28,9.25-4.17" transform="translate(-47.79 -21.15)"/><path class="cls-12" d="M192.2,347.79c.46-1,.18,2.84,7.37-5.18,6.16-6.89,8.72-12.54,5.3-15.61-3.63-3.26-4.28-1.61-10.59,5.3S189.74,346.66,192.2,347.79Z" transform="translate(-47.79 -21.15)"/></g></svg>