<svg xmlns="http://www.w3.org/2000/svg" viewBox="0 0 365.76 149.56"><defs><style>.cls-1{fill:#263238;}.cls-1,.cls-2,.cls-3,.cls-4{stroke:#263238;stroke-miterlimit:10;}.cls-2{fill:#1ab76c;}.cls-3{fill:none;}.cls-4{fill:#fff;}</style></defs><g id="Basket"><rect class="cls-1" x="393.3" y="387.91" width="23.91" height="93.04" transform="translate(-269.11 183.24) rotate(-54.36)"/><path class="cls-2" d="M374.2,476.47H111.4a11.29,11.29,0,0,1-11.26-10.38l-6.62-81.21a8.87,8.87,0,0,1,8.87-8.87H383.21a8.87,8.87,0,0,1,8.86,8.87l-6.61,81.21A11.3,11.3,0,0,1,374.2,476.47Z" transform="translate(-85.16 -327.41)"/><line class="cls-3" x1="245.34" y1="77.4" x2="268.44" y2="77.4"/><line class="cls-3" x1="245.34" y1="85.25" x2="268.44" y2="85.25"/><line class="cls-3" x1="245.34" y1="93.09" x2="268.44" y2="93.09"/><line class="cls-3" x1="269.31" y1="103.11" x2="292.4" y2="103.11"/><line class="cls-3" x1="269.31" y1="110.95" x2="292.4" y2="110.95"/><line class="cls-3" x1="269.31" y1="118.8" x2="292.4" y2="118.8"/><line class="cls-3" x1="287.83" y1="73.7" x2="287.83" y2="96.79"/><line class="cls-3" x1="279.98" y1="73.7" x2="279.98" y2="96.79"/><line class="cls-3" x1="272.14" y1="73.7" x2="272.14" y2="96.79"/><line class="cls-3" x1="264.3" y1="98.97" x2="264.3" y2="122.06"/><line class="cls-3" x1="256.45" y1="98.97" x2="256.45" y2="122.06"/><line class="cls-3" x1="248.61" y1="98.97" x2="248.61" y2="122.06"/><line class="cls-3" x1="25.85" y1="77.4" x2="48.94" y2="77.4"/><line class="cls-3" x1="25.85" y1="85.25" x2="48.94" y2="85.25"/><line class="cls-3" x1="25.85" y1="93.09" x2="48.94" y2="93.09"/><line class="cls-3" x1="49.82" y1="103.11" x2="72.91" y2="103.11"/><line class="cls-3" x1="49.82" y1="110.95" x2="72.91" y2="110.95"/><line class="cls-3" x1="49.82" y1="118.8" x2="72.91" y2="118.8"/><line class="cls-3" x1="26.72" y1="127.51" x2="49.82" y2="127.51"/><line class="cls-3" x1="26.72" y1="135.35" x2="49.82" y2="135.35"/><line class="cls-3" x1="26.72" y1="143.2" x2="49.82" y2="143.2"/><line class="cls-3" x1="68.33" y1="73.7" x2="68.33" y2="96.79"/><line class="cls-3" x1="60.49" y1="73.7" x2="60.49" y2="96.79"/><line class="cls-3" x1="52.65" y1="73.7" x2="52.65" y2="96.79"/><line class="cls-3" x1="44.81" y1="98.97" x2="44.81" y2="122.06"/><line class="cls-3" x1="36.96" y1="98.97" x2="36.96" y2="122.06"/><line class="cls-3" x1="29.12" y1="98.97" x2="29.12" y2="122.06"/><line class="cls-3" x1="152.33" y1="125.82" x2="175.43" y2="125.82"/><line class="cls-3" x1="152.33" y1="133.66" x2="175.43" y2="133.66"/><line class="cls-3" x1="152.33" y1="141.5" x2="175.43" y2="141.5"/><line class="cls-3" x1="147.32" y1="121.68" x2="147.32" y2="144.77"/><line class="cls-3" x1="139.48" y1="121.68" x2="139.48" y2="144.77"/><line class="cls-3" x1="131.64" y1="121.68" x2="131.64" y2="144.77"/><line class="cls-3" x1="72.47" y1="77.4" x2="95.57" y2="77.4"/><line class="cls-3" x1="72.47" y1="85.25" x2="95.57" y2="85.25"/><line class="cls-3" x1="72.47" y1="93.09" x2="95.57" y2="93.09"/><line class="cls-3" x1="114.96" y1="73.7" x2="114.96" y2="96.79"/><line class="cls-3" x1="107.11" y1="73.7" x2="107.11" y2="96.79"/><line class="cls-3" x1="99.27" y1="73.7" x2="99.27" y2="96.79"/><path class="cls-4" d="M392.07,394.79H93.52l-7.86-58a8.87,8.87,0,0,1,8.87-8.86H391.06a8.87,8.87,0,0,1,8.87,8.86Z" transform="translate(-85.16 -327.41)"/><rect class="cls-2" x="327.76" y="324.99" width="23.91" height="222.17" transform="translate(-251.81 330.4) rotate(-75.73)"/><path class="cls-4" d="M244.6,412.3a3.64,3.64,0,1,0-3.63,3.64A3.64,3.64,0,0,0,244.6,412.3Z" transform="translate(-85.16 -327.41)"/></g></svg>