<svg xmlns="http://www.w3.org/2000/svg" viewBox="0 0 453.25 422.48"><defs><style>.cls-1{opacity:0.3;}.cls-12,.cls-2,.cls-9{fill:none;}.cls-2{stroke:#fafafa;}.cls-10,.cls-12,.cls-2,.cls-3,.cls-4,.cls-5,.cls-7,.cls-8,.cls-9{stroke-miterlimit:10;}.cls-3{fill:#263238;}.cls-10,.cls-3,.cls-4,.cls-5,.cls-7,.cls-8,.cls-9{stroke:#263238;}.cls-4{fill:#8c8c8c;}.cls-5{fill:#1ab76c;}.cls-10,.cls-11,.cls-6{fill:#fff;}.cls-7{fill:#bdbdbd;}.cls-8{fill:#d6d6d6;}.cls-11{opacity:0.35;}.cls-12{stroke:#fff;}</style></defs><g id="Clouds"><g class="cls-1"><path class="cls-2" d="M35,381.69s7.42-14.95,22.27-17.75,20.52,14.48,24.45,18.69S87,378.89,94,379.36s8.73,5.14,10,7.47,6.17-5.36,9-4.31,4.08,4.36,4.08,4.36l10.08,1.82H13.2s-.87-7.94,6.55-9.81S32,382.63,35,381.69Z" transform="translate(-12.67 -54.49)"/><path class="cls-2" d="M373.72,73.05S381.14,58.1,396,55.29,416.5,69.78,420.43,74s5.24-3.74,12.22-3.27,8.74,5.14,10.05,7.48,6.16-5.37,9-4.32,4.08,4.36,4.08,4.36l10.09,1.82H351.89s-.88-7.94,6.55-9.81S370.66,74,373.72,73.05Z" transform="translate(-12.67 -54.49)"/><path class="cls-2" d="M342.78,96.75c2.05-1.3,3.79-3.88,5.76-5.53a26.64,26.64,0,0,1,17.59-6.56c14.71.32,20.72,17.35,22.52,18s5.71-6.1,12.31-4.82,7.81,7.07,9.92,8.68,7.8-2.89,11.41-1.61,3,5.47,6.6,5.79,5.71-1.61,8.41-1,4.51,3.54,4.51,3.54q-62.64,0-125.27,0-45.8,0-91.58,0c3.3-6,7.89-11.46,14-13.79,9.3-3.55,19.36,1,29.1,2.68a4.3,4.3,0,0,0,2.9-.19c1.18-.66,1.62-2.19,1.93-3.57,1.74-7.9,2.7-16.25,6.77-23.09C286,64.61,300,60.06,310.85,65.14c10.18,4.78,16.11,15.94,22.07,26a16.29,16.29,0,0,0,4.36,5.36A4.54,4.54,0,0,0,342.78,96.75Z" transform="translate(-12.67 -54.49)"/><path class="cls-2" d="M319.12,221.39c2.74-1.73,5.06-5.18,7.68-7.38,6.7-5.61,14.9-8.94,23.46-8.76,19.63.43,27.64,23.15,30,24s7.61-8.15,16.42-6.43,10.42,9.43,13.22,11.57,10.42-3.86,15.22-2.14,4,7.28,8.81,7.71,7.61-2.14,11.22-1.28,6,4.71,6,4.71q-83.54,0-167.07,0H162c4.39-8,10.52-15.3,18.65-18.4,12.39-4.74,25.81,1.3,38.8,3.58a5.76,5.76,0,0,0,3.87-.26c1.57-.88,2.16-2.92,2.57-4.77,2.33-10.52,3.6-21.66,9-30.79,8.48-14.24,27.16-20.31,41.61-13.53,13.58,6.37,21.5,21.26,29.45,34.65,1.59,2.69,3.3,5.43,5.8,7.15C314.7,223,317,222.7,319.12,221.39Z" transform="translate(-12.67 -54.49)"/></g></g><g id="Fruits"><circle class="cls-3" cx="155.8" cy="235.15" r="35.53"/><path class="cls-3" d="M269.52,260.76s1.7-1.5.29-6.8-4-8.82-3-9.16,1.81-1.09,3.3.61,3,6.21,3,9.42.09,5,.09,5-3.38,2.73-4.17,2.41S269.52,260.76,269.52,260.76Z" transform="translate(-12.67 -54.49)"/><path class="cls-4" d="M259.71,268.78s-10.93,5.69-2.22,27.44c6.17,15.41,28.08,27.13,41.77,24.79s19-12.09,19-12.09,6.42-4.28,9-10.27,9.44-21.61-9.72-41c-12.74-12.89-25.74-13.45-32.17-9.17S259.71,268.78,259.71,268.78Z" transform="translate(-12.67 -54.49)"/><circle class="cls-5" cx="359.64" cy="237.74" r="11.05" transform="translate(30.43 475.93) rotate(-76.22)"/><circle class="cls-3" cx="350.03" cy="243.81" r="11.05" transform="translate(37.76 492.98) rotate(-80.24)"/><circle class="cls-3" cx="333.25" cy="239.18" r="11.05" transform="translate(30.95 475.17) rotate(-80.75)"/><circle class="cls-3" cx="311.86" cy="197.03" r="11.05"/><circle class="cls-3" cx="307.66" cy="257.45" r="11.05" transform="translate(-26 443.6) rotate(-76.78)"/><circle class="cls-3" cx="330.17" cy="280.44" r="11.05" transform="translate(-31.58 482.46) rotate(-76.65)"/><circle class="cls-3" cx="337.64" cy="304.78" r="11.05" transform="translate(-129.29 273.52) rotate(-45)"/><circle class="cls-3" cx="337.4" cy="271.41" r="11.05"/><circle class="cls-3" cx="380.45" cy="333.13" r="11.05" transform="translate(-44.17 571.91) rotate(-76.65)"/><circle class="cls-3" cx="351.69" cy="339.47" r="11.05" transform="translate(-116.31 107.22) rotate(-22.66)"/><circle class="cls-3" cx="349.84" cy="256.07" r="11.05"/><circle class="cls-3" cx="351.87" cy="238.14" r="11.05"/><circle class="cls-3" cx="356.79" cy="227.72" r="11.05"/><circle class="cls-3" cx="351.58" cy="212.68" r="11.05"/><circle class="cls-5" cx="295.94" cy="235.42" r="11.05" transform="translate(-80.53 77.7) rotate(-22.66)"/><circle class="cls-5" cx="302.85" cy="245.52" r="12.65" transform="translate(-18.66 428.97) rotate(-76.64)"/><circle class="cls-5" cx="307.8" cy="249.89" r="11.05" transform="translate(-99.21 236.35) rotate(-45)"/><circle class="cls-5" cx="295.42" cy="170.52" r="8.92"/><circle class="cls-5" cx="313.1" cy="197.99" r="8.92"/><circle class="cls-5" cx="327.76" cy="267.82" r="11.05" transform="translate(-108.06 203.3) rotate(-37.9)"/><circle class="cls-5" cx="328.11" cy="197.13" r="11.05"/><circle class="cls-5" cx="325.15" cy="222.11" r="11.05" transform="translate(-74.49 240.49) rotate(-45)"/><circle class="cls-5" cx="362.82" cy="192.8" r="11.05"/><circle class="cls-5" cx="344.83" cy="230.22" r="11.05" transform="translate(28.56 458.1) rotate(-76.65)"/><circle class="cls-5" cx="362.47" cy="250.75" r="11.05" transform="translate(22.81 491.79) rotate(-76.78)"/><circle class="cls-5" cx="376.36" cy="265.51" r="11.05" transform="translate(41.14 539.81) rotate(-80.75)"/><circle class="cls-5" cx="346.56" cy="263.48" r="11.05" transform="translate(-2.48 485.37) rotate(-76.65)"/><circle class="cls-5" cx="324.29" cy="235.42" r="11.05" transform="translate(-74.5 73.69) rotate(-20.46)"/><circle class="cls-5" cx="341.93" cy="283.44" r="11.05" transform="translate(-100.86 118.25) rotate(-25.22)"/><circle class="cls-5" cx="333.31" cy="245.45" r="11.05"/><circle class="cls-5" cx="376.36" cy="289.81" r="11.05" transform="translate(-95.27 112.89) rotate(-22.66)"/><circle class="cls-5" cx="379.16" cy="310.73" r="12.98" transform="matrix(0.2, -0.98, 0.98, 0.2, -15.12, 563.96)"/><circle class="cls-5" cx="372.31" cy="267.82" r="11.05" transform="translate(35.45 537.75) rotate(-80.75)"/><circle class="cls-5" cx="334.1" cy="189.52" r="11.05"/><circle class="cls-5" cx="352.46" cy="222.88" r="11.05"/><circle class="cls-5" cx="360.8" cy="308.9" r="11.05" transform="translate(-14.75 560.87) rotate(-80.75)"/><circle class="cls-5" cx="378.73" cy="325.1" r="11.05" transform="translate(-121.25 378.58) rotate(-53.13)"/><circle class="cls-5" cx="351.54" cy="331.75" r="11.05" transform="translate(-120.75 127.62) rotate(-25.31)"/><circle class="cls-5" cx="306.76" cy="214.49" r="11.05"/><circle class="cls-5" cx="337.65" cy="287.78" r="11.05" transform="translate(-117.27 268.56) rotate(-45)"/><circle class="cls-5" cx="343.15" cy="227.8" r="11.05"/><circle class="cls-5" cx="364.46" cy="330.02" r="13.17" transform="translate(-35.12 578.92) rotate(-80.26)"/><circle class="cls-5" cx="347.78" cy="249.21" r="9.31"/><circle class="cls-5" cx="335.63" cy="262.22" r="9.31"/><path class="cls-6" d="M327.67,230.23a3,3,0,1,1-3-2.71A2.87,2.87,0,0,1,327.67,230.23Z" transform="translate(-12.67 -54.49)"/><path class="cls-6" d="M329.77,216.09a3,3,0,1,1-3-2.71A2.88,2.88,0,0,1,329.77,216.09Z" transform="translate(-12.67 -54.49)"/><path class="cls-6" d="M351.48,224a3,3,0,1,1-3-2.71A2.87,2.87,0,0,1,351.48,224Z" transform="translate(-12.67 -54.49)"/><path class="cls-6" d="M353.13,240.78a3,3,0,1,1-3-2.71A2.87,2.87,0,0,1,353.13,240.78Z" transform="translate(-12.67 -54.49)"/><path class="cls-6" d="M369.24,246.51a3,3,0,1,1-3-2.71A2.87,2.87,0,0,1,369.24,246.51Z" transform="translate(-12.67 -54.49)"/><path class="cls-6" d="M381.39,243.36a3,3,0,1,1-3-2.71A2.87,2.87,0,0,1,381.39,243.36Z" transform="translate(-12.67 -54.49)"/><path class="cls-6" d="M381.08,264.44a3,3,0,1,1-3-2.71A2.88,2.88,0,0,1,381.08,264.44Z" transform="translate(-12.67 -54.49)"/><path class="cls-6" d="M372.55,272.19a3,3,0,1,1-3-2.71A2.88,2.88,0,0,1,372.55,272.19Z" transform="translate(-12.67 -54.49)"/><path class="cls-6" d="M362.26,277.48a3,3,0,1,1-3-2.71A2.88,2.88,0,0,1,362.26,277.48Z" transform="translate(-12.67 -54.49)"/><path class="cls-6" d="M354.15,261.86a3,3,0,1,1-3-2.71A2.88,2.88,0,0,1,354.15,261.86Z" transform="translate(-12.67 -54.49)"/><path class="cls-6" d="M325.66,265.76a3,3,0,1,1-3-2.71A2.87,2.87,0,0,1,325.66,265.76Z" transform="translate(-12.67 -54.49)"/><path class="cls-6" d="M311.14,247.78a3,3,0,1,1-3-2.71A2.88,2.88,0,0,1,311.14,247.78Z" transform="translate(-12.67 -54.49)"/><path class="cls-6" d="M311.58,221.28a3,3,0,1,1-3-2.7A2.87,2.87,0,0,1,311.58,221.28Z" transform="translate(-12.67 -54.49)"/><path class="cls-6" d="M386,304.54a3,3,0,1,1-3-2.71A2.88,2.88,0,0,1,386,304.54Z" transform="translate(-12.67 -54.49)"/><path class="cls-5" d="M95.52,218.63c-4.72,2.44-8,11.55-8.27,18.88-.79,18.08,10.21,26.72,6.28,63.65s-10.21,47.15,8.65,71.51S174.47,397,183.9,348.31s-37.72-77-48.72-84.87c-12.69-9.06-20.5-25-28.38-38C104.6,221.83,100.34,216.14,95.52,218.63Z" transform="translate(-12.67 -54.49)"/><path class="cls-7" d="M98.72,219.87s-3.85-7.23-3.85-15,2.89-11.08-1.45-10.12-4.82,4.34-4.34,10.12S91,218.42,93.9,221.8,98.72,219.87,98.72,219.87Z" transform="translate(-12.67 -54.49)"/><circle class="cls-8" cx="142.46" cy="340.38" r="33.16" transform="matrix(0.92, -0.39, 0.39, 0.92, -134.29, 28.18)"/><path class="cls-9" d="M143.14,314.27c0,1.9-2,3.44-4.51,3.44s-4.52-1.54-4.52-3.44,2-3.44,4.52-3.44S143.14,312.37,143.14,314.27Z" transform="translate(-12.67 -54.49)"/><circle class="cls-8" cx="304" cy="322.29" r="33.16" transform="matrix(0.92, -0.39, 0.39, 0.92, -114.4, 89.83)"/><path class="cls-9" d="M304.68,296.18c0,1.9-2,3.44-4.52,3.44s-4.51-1.54-4.51-3.44,2-3.44,4.51-3.44S304.68,294.28,304.68,296.18Z" transform="translate(-12.67 -54.49)"/><path class="cls-10" d="M269,313.09s.91,13-12.38,25.94-30.43,19.58-55.34,17.77-49.2-15.62-63.35-33.31a66.91,66.91,0,0,1-14.62-45.14c.38-8.93-.29-12.52.91-13.33s5.72-2.67,7.59-1.61a19.79,19.79,0,0,1,3.6,2.79s-3.62-13.18-7.77-23.7-2.59-25.44-2.06-29.84,3.05-6.66,5.18-6.94,3.86-.27,5.07,2.39,4.28,9.85,4.28,9.85,16.95,15.82,29.37,28.32c3.79,3.82,8,8.21,12.07,12.47a88.31,88.31,0,0,0,46.7,25.82l.46.1c15.33,3,21.73,7.41,23.33,8.08a17.26,17.26,0,0,0,16.19-4.05,162.91,162.91,0,0,0,13.41-14.93s6.75,2.34,9.29,7,2.34,9.16,1.14,10-21,6.65-24.93,8.74C265,300.62,269,313.09,269,313.09Z" transform="translate(-12.67 -54.49)"/><path class="cls-9" d="M135.39,266.2S138,287,173,307.15s71.12,5,76.21.17,8.67-6.16,10.83-6.56" transform="translate(-12.67 -54.49)"/><line class="cls-9" x1="114.57" y1="213.78" x2="114.34" y2="220.15"/><line class="cls-9" x1="119.04" y1="216.32" x2="120.48" y2="219.5"/><path class="cls-9" d="M131.19,212.7s-2.53,6.54,9.47,31.7" transform="translate(-12.67 -54.49)"/><path class="cls-9" d="M234.89,304c7.93.53,10.87-1.27,10.87-1.27" transform="translate(-12.67 -54.49)"/><path class="cls-9" d="M151.92,261.33c7.4,8.28,20.5,19.73,42.24,29.91,14.93,7,25.91,10.35,33.81,11.82" transform="translate(-12.67 -54.49)"/><path class="cls-9" d="M143.54,249.74a45.87,45.87,0,0,0,5.09,7.67" transform="translate(-12.67 -54.49)"/><path class="cls-9" d="M135.39,279.41s4.25,12,29.72,30.94" transform="translate(-12.67 -54.49)"/><path class="cls-9" d="M172.05,315s22.67,14.23,52.15,7.63" transform="translate(-12.67 -54.49)"/><path class="cls-3" d="M287.5,286.51a47,47,0,0,0-6.55-5.64c-1.84-1.2.67-7.1.67-7.1s6.75,2.34,9.29,7,2.34,9.16,1.14,10a27,27,0,0,1-3.32,1.23l-.19-.27C284.71,286,288,287.23,287.5,286.51Z" transform="translate(-12.67 -54.49)"/><circle class="cls-8" cx="348.72" cy="326.82" r="33.16" transform="translate(-137.53 207.97) rotate(-35.4)"/><path class="cls-9" d="M374.29,332.12c-1.87-.34-3-2.6-2.58-5.06s2.31-4.17,4.18-3.83,3,2.6,2.59,5S376.16,332.45,374.29,332.12Z" transform="translate(-12.67 -54.49)"/><path class="cls-4" d="M153.87,276.35s-11.55-4.29-21.84,16.76c-7.29,14.92-1.28,39,9.64,47.61s21.71,6,21.71,6,7.48,1.9,13.66-.2,22.36-7.5,23.88-34.71c1-18.1-7.31-28.11-14.79-30S153.87,276.35,153.87,276.35Z" transform="translate(-12.67 -54.49)"/><ellipse class="cls-11" cx="171.66" cy="245.09" rx="8.46" ry="9.51"/><path class="cls-3" d="M165.41,283.6s3.23-5.11,6.22-9.71,3.86-8.87,4.75-8.39,2,.61,1.77,2.86-2.62,6.35-5,8.56-4.85,9-4.85,9-4.29-.67-4.58-1.47S165.41,283.6,165.41,283.6Z" transform="translate(-12.67 -54.49)"/><path class="cls-9" d="M179.05,285.27a14.57,14.57,0,0,0,3.5-1.38" transform="translate(-12.67 -54.49)"/><path class="cls-9" d="M154.14,280.58a61.51,61.51,0,0,0,10.48,4.69,25.85,25.85,0,0,0,11,.69" transform="translate(-12.67 -54.49)"/></g><g id="Basket"><path class="cls-5" d="M374.2,476.47H111.4a11.29,11.29,0,0,1-11.26-10.38l-6.62-81.21a8.87,8.87,0,0,1,8.87-8.87H383.21a8.87,8.87,0,0,1,8.86,8.87l-6.61,81.21A11.3,11.3,0,0,1,374.2,476.47Z" transform="translate(-12.67 -54.49)"/><line class="cls-12" x1="317.84" y1="350.32" x2="340.93" y2="350.32"/><line class="cls-12" x1="317.84" y1="358.16" x2="340.93" y2="358.16"/><line class="cls-12" x1="317.84" y1="366.01" x2="340.93" y2="366.01"/><line class="cls-12" x1="341.8" y1="376.03" x2="364.89" y2="376.03"/><line class="cls-12" x1="341.8" y1="383.87" x2="364.89" y2="383.87"/><line class="cls-12" x1="341.8" y1="391.72" x2="364.89" y2="391.72"/><line class="cls-12" x1="360.32" y1="346.62" x2="360.32" y2="369.71"/><line class="cls-12" x1="352.48" y1="346.62" x2="352.48" y2="369.71"/><line class="cls-12" x1="344.63" y1="346.62" x2="344.63" y2="369.71"/><line class="cls-12" x1="336.79" y1="371.89" x2="336.79" y2="394.98"/><line class="cls-12" x1="328.95" y1="371.89" x2="328.95" y2="394.98"/><line class="cls-12" x1="321.1" y1="371.89" x2="321.1" y2="394.98"/><line class="cls-12" x1="98.34" y1="350.32" x2="121.44" y2="350.32"/><line class="cls-12" x1="98.34" y1="358.16" x2="121.44" y2="358.16"/><line class="cls-12" x1="98.34" y1="366.01" x2="121.44" y2="366.01"/><line class="cls-12" x1="122.31" y1="376.03" x2="145.4" y2="376.03"/><line class="cls-12" x1="122.31" y1="383.87" x2="145.4" y2="383.87"/><line class="cls-12" x1="122.31" y1="391.72" x2="145.4" y2="391.72"/><line class="cls-12" x1="99.21" y1="400.43" x2="122.31" y2="400.43"/><line class="cls-12" x1="99.21" y1="408.27" x2="122.31" y2="408.27"/><line class="cls-12" x1="99.21" y1="416.12" x2="122.31" y2="416.12"/><line class="cls-12" x1="140.83" y1="346.62" x2="140.83" y2="369.71"/><line class="cls-12" x1="132.98" y1="346.62" x2="132.98" y2="369.71"/><line class="cls-12" x1="125.14" y1="346.62" x2="125.14" y2="369.71"/><line class="cls-12" x1="117.3" y1="371.89" x2="117.3" y2="394.98"/><line class="cls-12" x1="109.45" y1="371.89" x2="109.45" y2="394.98"/><line class="cls-12" x1="101.61" y1="371.89" x2="101.61" y2="394.98"/><line class="cls-12" x1="224.83" y1="398.73" x2="247.92" y2="398.73"/><line class="cls-12" x1="224.83" y1="406.58" x2="247.92" y2="406.58"/><line class="cls-12" x1="224.83" y1="414.42" x2="247.92" y2="414.42"/><line class="cls-12" x1="219.81" y1="394.59" x2="219.81" y2="417.69"/><line class="cls-12" x1="211.97" y1="394.59" x2="211.97" y2="417.69"/><line class="cls-12" x1="204.13" y1="394.59" x2="204.13" y2="417.69"/><line class="cls-12" x1="144.97" y1="350.32" x2="168.06" y2="350.32"/><line class="cls-12" x1="144.97" y1="358.16" x2="168.06" y2="358.16"/><line class="cls-12" x1="144.97" y1="366.01" x2="168.06" y2="366.01"/><line class="cls-12" x1="187.45" y1="346.62" x2="187.45" y2="369.71"/><line class="cls-12" x1="179.61" y1="346.62" x2="179.61" y2="369.71"/><line class="cls-12" x1="171.76" y1="346.62" x2="171.76" y2="369.71"/><path class="cls-10" d="M392.07,394.79H93.52l-7.86-58a8.87,8.87,0,0,1,8.87-8.86H391.06a8.87,8.87,0,0,1,8.87,8.86Z" transform="translate(-12.67 -54.49)"/></g></svg>