<svg xmlns="http://www.w3.org/2000/svg" viewBox="0 0 600.5 145.66"><defs><style>.cls-1{fill:#1ab76c;}.cls-2{fill:#598bff;}.cls-3{fill:#ffd154;}.cls-4{font-size:130px;fill:#fafafa;font-family:NeueHaasDisplay-Bold, Neue Haas Grotesk Display Pro;font-weight:700;}.cls-5{letter-spacing:-0.01em;}.cls-6{letter-spacing:0em;}</style></defs><g id="Calque_2" data-name="Calque 2"><g id="Graphic_Elements" data-name="Graphic Elements"><path class="cls-1" d="M79.6,41.54A13.49,13.49,0,1,0,58.78,24.6c-.64.64-54.34,66.83-54.84,67.59a13.49,13.49,0,1,0,20.81,16.94C25.39,108.49,79.1,42.3,79.6,41.54Z"/><path class="cls-2" d="M110.67,73A13.49,13.49,0,1,0,89.86,56c-.64.65-28.85,35.41-29.35,36.18a13.49,13.49,0,1,0,20.81,16.95C82,108.48,110.17,73.71,110.67,73Z"/><path class="cls-3" d="M140.1,32a13.49,13.49,0,1,1-13.49-13.49A13.49,13.49,0,0,1,140.1,32Z"/><path class="cls-3" d="M27,32A13.49,13.49,0,1,1,13.49,18.53,13.49,13.49,0,0,1,27,32Z"/><text class="cls-4" transform="translate(189.96 111.47)">D<tspan class="cls-5" x="91.65" y="0">o</tspan><tspan class="cls-6" x="165.62" y="0">tt</tspan><tspan x="255.58" y="0">ed</tspan></text></g></g></svg>